<svg xmlns="http://www.w3.org/2000/svg" xmlns:xlink="http://www.w3.org/1999/xlink" width="124" height="124" viewBox="0 0 124 124">
  <defs>
    <filter id="Path_2711" x="0" y="0" width="124" height="124" filterUnits="userSpaceOnUse">
      <feOffset dy="3" input="SourceAlpha"/>
      <feGaussianBlur stdDeviation="3" result="blur"/>
      <feFlood flood-opacity="0.161"/>
      <feComposite operator="in" in2="blur"/>
      <feComposite in="SourceGraphic"/>
    </filter>
  </defs>
  <g id="comprehensive_training" transform="translate(-289.5 -121.5)">
    <g transform="matrix(1, 0, 0, 1, 289.5, 121.5)" filter="url(#Path_2711)">
      <g id="Path_2711-2" data-name="Path 2711" transform="translate(11 8)" fill="#fff">
        <path d="M 96 103 L 6 103 C 2.140186548233032 103 -1 99.85980987548828 -1 96 L -1 6 C -1 2.140186548233032 2.140186548233032 -1 6 -1 L 96 -1 C 99.85980987548828 -1 103 2.140186548233032 103 6 L 103 96 C 103 99.85980987548828 99.85980987548828 103 96 103 Z" stroke="none"/>
        <path d="M 6 0 C 2.686286926269531 0 0 2.686286926269531 0 6 L 0 96 C 0 99.31369781494141 2.686286926269531 102 6 102 L 96 102 C 99.31369781494141 102 102 99.31369781494141 102 96 L 102 6 C 102 2.686286926269531 99.31369781494141 0 96 0 L 6 0 M 6 -2 L 96 -2 C 100.4112167358398 -2 104 1.588783264160156 104 6 L 104 96 C 104 100.4112167358398 100.4112167358398 104 96 104 L 6 104 C 1.588783264160156 104 -2 100.4112167358398 -2 96 L -2 6 C -2 1.588783264160156 1.588783264160156 -2 6 -2 Z" stroke="none" fill="#035a99"/>
      </g>
    </g>
    <rect id="Rectangle_4617" data-name="Rectangle 4617" width="14" height="14" rx="3" transform="translate(336.5 142.5)" fill="#035a9a"/>
    <path id="Path_2701" data-name="Path 2701" d="M3,0h8a3,3,0,0,1,3,3v8a3,3,0,0,1-3,3H3a3,3,0,0,1-3-3V3A3,3,0,0,1,3,0Z" transform="translate(304.5 142.5)" fill="#035a9a"/>
    <path id="Path_2700" data-name="Path 2700" d="M3,0h8a3,3,0,0,1,3,3v8a3,3,0,0,1-3,3H3a3,3,0,0,1-3-3V3A3,3,0,0,1,3,0Z" transform="translate(320.5 142.5)" fill="#035a9a"/>
    <rect id="Rectangle_4612" data-name="Rectangle 4612" width="14" height="14" rx="3" transform="translate(368.5 142.5)" fill="#035a9a"/>
    <rect id="Rectangle_4611" data-name="Rectangle 4611" width="14" height="14" rx="3" transform="translate(384.5 142.5)" fill="#cdddfc"/>
    <rect id="Rectangle_4613" data-name="Rectangle 4613" width="14" height="14" rx="3" transform="translate(352.5 142.5)" fill="#035a9a"/>
    <rect id="Rectangle_4614" data-name="Rectangle 4614" width="14" height="14" rx="3" transform="translate(352.5 158.5)" fill="#f0f4fc"/>
    <rect id="Rectangle_4615" data-name="Rectangle 4615" width="14" height="14" rx="3" transform="translate(368.5 158.5)" fill="#f0f4fc"/>
    <rect id="Rectangle_4623" data-name="Rectangle 4623" width="30" height="14" rx="3" transform="translate(352.5 174.5)" fill="#035a9a"/>
    <rect id="Rectangle_4616" data-name="Rectangle 4616" width="14" height="14" rx="3" transform="translate(384.5 158.5)" fill="#f0f4fc"/>
    <rect id="Rectangle_4619" data-name="Rectangle 4619" width="14" height="14" rx="3" transform="translate(336.5 174.5)" fill="#f0f4fc"/>
    <rect id="Rectangle_4628" data-name="Rectangle 4628" width="14" height="14" rx="3" transform="translate(304.5 174.5)" fill="#cdddfc"/>
    <rect id="Rectangle_4624" data-name="Rectangle 4624" width="14" height="14" rx="3" transform="translate(320.5 174.5)" fill="#cdddfc"/>
    <rect id="Rectangle_4620" data-name="Rectangle 4620" width="14" height="14" rx="3" transform="translate(352.5 190.5)" fill="#f0f4fc"/>
    <rect id="Rectangle_4706" data-name="Rectangle 4706" width="62" height="14" rx="7" transform="translate(320.5 212.5)" fill="#035a9a"/>
    <rect id="Rectangle_4621" data-name="Rectangle 4621" width="14" height="14" rx="3" transform="translate(368.5 190.5)" fill="#f0f4fc"/>
    <rect id="Rectangle_4630" data-name="Rectangle 4630" width="14" height="14" rx="3" transform="translate(384.5 190.5)" fill="#f0f4fc"/>
    <path id="Path_2702" data-name="Path 2702" d="M3,0h8a3,3,0,0,1,3,3v8a3,3,0,0,1-3,3H3a3,3,0,0,1-3-3V3A3,3,0,0,1,3,0Z" transform="translate(384.5 174.5)" fill="#035a9a"/>
    <rect id="Rectangle_4625" data-name="Rectangle 4625" width="14" height="14" rx="3" transform="translate(336.5 190.5)" fill="#f0f4fc"/>
    <rect id="Rectangle_4629" data-name="Rectangle 4629" width="14" height="14" rx="3" transform="translate(304.5 190.5)" fill="#cdddfc"/>
    <rect id="Rectangle_4626" data-name="Rectangle 4626" width="14" height="14" rx="3" transform="translate(320.5 190.5)" fill="#cdddfc"/>
    <rect id="Rectangle_4627" data-name="Rectangle 4627" width="46" height="14" rx="3" transform="translate(304.5 158.5)" fill="#035a9a"/>
    <text id="_2" data-name="2" transform="translate(325.5 152.5)" fill="#f0f4fc" font-size="7" font-family="SegoeUIBlack, Segoe UI"><tspan x="0" y="0">2</tspan></text>
    <text id="_" data-name="=" transform="translate(373.5 151.5)" fill="#f0f4fc" font-size="7" font-family="SegoeUIBlack, Segoe UI"><tspan x="0" y="0">=</tspan></text>
    <text id="_15" data-name="15" transform="translate(387 152)" fill="#f0f4fc" font-size="7" font-family="SegoeUIBlack, Segoe UI"><tspan x="0" y="0">15</tspan></text>
    <text id="_3" data-name="3" transform="translate(358 152)" fill="#f0f4fc" font-size="7" font-family="SegoeUIBlack, Segoe UI"><tspan x="0" y="0">3</tspan></text>
    <text id="_2-2" data-name="+" transform="translate(341.5 151.5)" fill="#f0f4fc" font-size="7" font-family="SegoeUIBlack, Segoe UI"><tspan x="0" y="0">+</tspan></text>
    <text id="_0" data-name="0" transform="translate(325.5 199.5)" fill="#f0f4fc" font-size="7" font-family="SegoeUIBlack, Segoe UI"><tspan x="0" y="0">0</tspan></text>
    <text id="_6" data-name="6" transform="translate(325.5 183.5)" fill="#f0f4fc" font-size="7" font-family="SegoeUIBlack, Segoe UI"><tspan x="0" y="0">6</tspan></text>
    <text id="الكسور" transform="translate(357.5 183.5)" fill="#f0f4fc" font-size="7" font-family="SegoeUI-Bold, Segoe UI" font-weight="700"><tspan x="0" y="0">الكسور</tspan></text>
    <text id="تخطي" transform="translate(342.5 221.5)" fill="#fff" font-size="7" font-family="SegoeUI-Bold, Segoe UI" font-weight="700"><tspan x="0" y="0">تخطي</tspan></text>
    <text id="_1" data-name="1" transform="translate(309.5 152.5)" fill="#f0f4fc" font-size="7" font-family="SegoeUIBlack, Segoe UI"><tspan x="0" y="0">1</tspan></text>
    <text id="_0-2" data-name="0" transform="translate(309.5 199.5)" fill="#f0f4fc" font-size="7" font-family="SegoeUIBlack, Segoe UI"><tspan x="0" y="0">0</tspan></text>
    <text id="_6-2" data-name="6" transform="translate(309.5 183.5)" fill="#f0f4fc" font-size="7" font-family="SegoeUIBlack, Segoe UI"><tspan x="0" y="0">6</tspan></text>
    <text id="القسمة_المطولة" data-name="القسمة المطولة" transform="translate(307.5 167.5)" fill="#fff" font-size="6" font-family="SegoeUI-Bold, Segoe UI" font-weight="700"><tspan x="0" y="0">القسمة المطولة</tspan></text>
    <text id="_3-2" data-name="¾" transform="translate(386.5 185.5)" fill="#f0f4fc" font-size="11" font-family="ArialMT, Arial"><tspan x="0" y="0">¾</tspan></text>
  </g>
</svg>
