<svg width="22" height="26" viewBox="0 0 22 26" fill="none" xmlns="http://www.w3.org/2000/svg">
<path d="M9.07178 14.8141C11.7392 14.8141 13.9084 12.6448 13.9084 9.9774C13.9084 7.31001 11.7392 5.14075 9.07178 5.14075C6.40436 5.14075 4.23511 7.31001 4.23511 9.9774C4.23511 12.6449 6.40436 14.8141 9.07178 14.8141Z" stroke="#01508A" stroke-width="2"/>
<path d="M5.133 16.0072C3.17389 16.0072 1.58594 17.5633 1.58594 19.4832V23.3655C1.58594 23.7345 1.89154 24.034 2.26805 24.034H16.6474C17.0239 24.034 17.3295 23.7345 17.3295 23.3655V19.5794C17.3895 19.4778 17.4441 19.3682 17.4878 19.2532L20.2709 12.0339C20.3636 11.7933 20.4127 11.5366 20.4127 11.2773V3.17564C20.4127 1.99384 19.436 1.03662 18.2299 1.03662C17.0239 1.03662 16.0471 1.99384 16.0471 3.17564V10.8869L14.0743 16.0072H5.133Z" stroke="#01508A" stroke-width="2"/>
</svg>
