<svg width="32" height="32" viewBox="0 0 32 32" fill="none" xmlns="http://www.w3.org/2000/svg">
<circle cx="16" cy="16" r="15.5" stroke="white"/>
<path d="M19.1997 13.9648C20.9297 15.6948 20.9297 18.4997 19.1997 20.2297C17.4697 21.9597 14.6647 21.9597 12.9347 20.2297C11.2047 18.4997 11.2047 15.6948 12.9347 13.9648C14.6647 12.2347 17.4697 12.2347 19.1997 13.9648" stroke="white" stroke-linecap="round" stroke-linejoin="round"/>
<path fill-rule="evenodd" clip-rule="evenodd" d="M26.0006 12.6672V22.6672C26.0006 23.895 25.0062 24.8894 23.7784 24.8894H8.22283C6.99505 24.8894 6.00061 23.895 6.00061 22.6672V12.6672C6.00061 11.4394 6.99505 10.445 8.22283 10.445H10.4451L12.0695 7.66274C12.2684 7.32163 12.6339 7.11163 13.0295 7.11163H18.9228C19.3128 7.11163 19.6739 7.31608 19.8751 7.64941L21.5562 10.445H23.7784C25.0062 10.445 26.0006 11.4394 26.0006 12.6672Z" stroke="white" stroke-linecap="round" stroke-linejoin="round"/>
</svg>
