<svg xmlns="http://www.w3.org/2000/svg" width="21.457" height="26.799" viewBox="0 0 21.457 26.799">
  <path id="Union_517" data-name="Union 517" d="M12.867,27.634l-2.334-.62A5.932,5.932,0,0,1,6.9,24.251L1.783,15.445a1.613,1.613,0,0,1,.6-2.21,2.445,2.445,0,0,1,3.116.6l2.789,3.43L10.992,7.233A2.079,2.079,0,0,1,15.01,8.3l-.7,2.611a2.08,2.08,0,0,1,2.549,2.268,2.08,2.08,0,0,1,2.57,2.264,2.074,2.074,0,0,1,2.517,2.531L20.1,23.715a5.976,5.976,0,0,1-5.675,4.125A6.026,6.026,0,0,1,12.867,27.634ZM2.923,14.169a.538.538,0,0,0-.2.737l5.121,8.806a4.853,4.853,0,0,0,2.968,2.261l2.334.621a4.889,4.889,0,0,0,5.914-3.207L20.9,17.672a.981.981,0,0,0-.706-1.178.993.993,0,0,0-.758.1.978.978,0,0,0-.461.6l-.017.063a.543.543,0,0,1-.665.381.538.538,0,0,1-.388-.645s0,0,0,0h0v-.006l.417-1.543a.993.993,0,0,0-1.919-.51l-.414,1.536a.538.538,0,0,1-.254.328.544.544,0,0,1-.412.055.539.539,0,0,1-.384-.66l.812-3.011a.992.992,0,0,0-1.918-.51l-.812,3.01a.543.543,0,0,1-.254.328.549.549,0,0,1-.412.055.54.54,0,0,1-.385-.661l1.99-7.37a.972.972,0,0,0-.1-.746,1,1,0,0,0-1.82.235L9.058,18.564a.544.544,0,0,1-.947.2L4.646,14.5a1.354,1.354,0,0,0-1.061-.511A1.329,1.329,0,0,0,2.923,14.169ZM16.394,9.858a.534.534,0,0,1-.124-.752,3.758,3.758,0,0,0,.213-4.088,3.821,3.821,0,0,0-5.193-1.381A3.774,3.774,0,0,0,9.414,7.282a.543.543,0,0,1-1.082.108A4.854,4.854,0,0,1,10.746,2.7a4.914,4.914,0,0,1,6.677,1.776,4.831,4.831,0,0,1-.272,5.256.546.546,0,0,1-.758.123Z" transform="translate(-1.061 -1.54)" fill="#fff" stroke="#fff" stroke-width="1"/>
</svg>
