<svg id="Group_8808" data-name="Group 8808" xmlns="http://www.w3.org/2000/svg" width="59.523" height="59" viewBox="0 0 59.523 59">
  <g id="Rectangle_5462" data-name="Rectangle 5462" transform="translate(7.431)" fill="none" stroke="#fff" stroke-width="5">
    <path d="M0,0H43.092a9,9,0,0,1,9,9V35.985a9,9,0,0,1-9,9H9a9,9,0,0,1-9-9V0A0,0,0,0,1,0,0Z" stroke="none"/>
    <path d="M2.5,2.5H43.092a6.5,6.5,0,0,1,6.5,6.5V35.985a6.5,6.5,0,0,1-6.5,6.5H9a6.5,6.5,0,0,1-6.5-6.5V2.5A0,0,0,0,1,2.5,2.5Z" fill="none"/>
  </g>
  <path id="Rectangle_5463" data-name="Rectangle 5463" d="M13,0H39.092a13,13,0,0,1,13,13V44.985a0,0,0,0,1,0,0H13a13,13,0,0,1-13-13V13A13,13,0,0,1,13,0Z" transform="translate(0 14.015)" fill="#fff"/>
</svg>
