<svg xmlns="http://www.w3.org/2000/svg" width="65" height="65" viewBox="0 0 65 65">
  <g id="Group_10311" data-name="Group 10311" transform="translate(-175 -53)">
    <g id="Group_9572" data-name="Group 9572">
      <g id="Group_2260" data-name="Group 2260" transform="translate(175 53)">
        <rect id="IMG_0460" width="65" height="65" rx="15" fill="#4883c4"/>
      </g>
    </g>
    <g id="Group_9573" data-name="Group 9573" transform="translate(78.155 -704.072)">
      <g id="Union_532" data-name="Union 532" transform="translate(110.025 770.157)" fill="none">
        <path d="M2,28.939a2,2,0,0,1-2-2v-.63a2,2,0,0,1,2-2H4.325a5.08,5.08,0,0,0,.959-2.9V15.613c0-5.6,4.67-10.278,10.877-11.353V3a3,3,0,0,1,3-3H19.6a3,3,0,0,1,3,3V4.465c5.706,1.377,9.886,5.846,9.886,11.148v5.793a5.008,5.008,0,0,0,.97,2.9h2.237a2,2,0,0,1,2,2v.63a2,2,0,0,1-2,2Z" stroke="none"/>
        <path d="M 27.82186126708984 23.93860054016113 C 27.5980339050293 23.11562728881836 27.48550033569336 22.27033615112305 27.48550033569336 21.4064998626709 L 27.48550033569336 15.61320018768311 C 27.48550033569336 12.77183055877686 24.99382972717285 10.18616008758545 21.42621040344238 9.32533073425293 L 19.24795913696289 8.799738883972168 L 17.0135612487793 9.186670303344727 C 15.01937103271484 9.532010078430176 13.23310089111328 10.43148040771484 11.98382091522217 11.71936988830566 C 11.20832061767578 12.51883029937744 10.28390026092529 13.84333038330078 10.28390026092529 15.61320018768311 L 10.28390026092529 21.4064998626709 C 10.28390026092529 22.26870727539062 10.17142295837402 23.11421966552734 9.947874069213867 23.93860054016113 L 27.82186126708984 23.93860054016113 M 35.69219970703125 28.93860054016113 L 1.999800682067871 28.93860054016113 C 0.895500659942627 28.93860054016113 6.713867151120212e-07 28.04400062561035 6.713867151120212e-07 26.93880081176758 L 6.713867151120212e-07 26.30879974365234 C 6.713867151120212e-07 25.20450019836426 0.895500659942627 24.30900001525879 1.999800682067871 24.30900001525879 L 4.325270652770996 24.30900001525879 C 4.860110759735107 23.52439117431641 5.283900737762451 22.56882095336914 5.283900737762451 21.4064998626709 L 5.283900737762451 15.61320018768311 C 5.283900737762451 10.00899982452393 9.954390525817871 5.334710121154785 16.160400390625 4.260000228881836 L 16.160400390625 2.999700307846069 C 16.160400390625 1.342800259590149 17.50320053100586 2.700805623589986e-07 19.16010093688965 2.700805623589986e-07 L 19.59930038452148 2.700805623589986e-07 C 21.25620079040527 2.700805623589986e-07 22.59900093078613 1.342800259590149 22.59900093078613 2.999700307846069 L 22.59900093078613 4.464820384979248 C 28.30491065979004 5.84160041809082 32.48550033569336 10.3112907409668 32.48550033569336 15.61320018768311 L 32.48550033569336 21.4064998626709 C 32.48550033569336 22.5774097442627 32.9151725769043 23.53109931945801 33.45560073852539 24.30900001525879 L 35.69219970703125 24.30900001525879 C 36.79650115966797 24.30900001525879 37.69200134277344 25.20450019836426 37.69200134277344 26.30879974365234 L 37.69200134277344 26.93880081176758 C 37.69200134277344 28.04400062561035 36.79650115966797 28.93860054016113 35.69219970703125 28.93860054016113 Z" stroke="none" fill="#fff"/>
      </g>
      <path id="Path_3437" data-name="Path 3437" d="M4.613,2c2.548,0,4.613-.556,4.613,1.992A4.613,4.613,0,0,1,0,3.993C0,1.445,2.065,2,4.613,2Z" transform="translate(124.795 799.535)" fill="#fff"/>
    </g>
  </g>
</svg>
