<svg id="Group_10341" data-name="Group 10341" xmlns="http://www.w3.org/2000/svg" xmlns:xlink="http://www.w3.org/1999/xlink" width="65" height="65" viewBox="0 0 65 65">
  <defs>
    <clipPath id="clip-path">
      <rect y="4" width="7.1" height="3.786" fill="none"/>
    </clipPath>
  </defs>
  <g id="Group_9369" data-name="Group 9369">
    <g id="Group_8959" data-name="Group 8959" transform="translate(0 0)">
      <g id="Group_8958" data-name="Group 8958" transform="translate(0 0)">
        <g id="Group_6479" data-name="Group 6479">
          <g id="Group_6360" data-name="Group 6360">
            <g id="Group_6098" data-name="Group 6098">
              <g id="Group_2260" data-name="Group 2260">
                <rect id="IMG_0460" width="65" height="65" rx="15" fill="#4883c4"/>
              </g>
            </g>
          </g>
        </g>
      </g>
    </g>
  </g>
  <g id="Group_9984" data-name="Group 9984" transform="translate(12.679 14.999)">
    <g id="Group_9981" data-name="Group 9981" transform="translate(20.107 35.286) rotate(180)">
      <g id="Group_9020" data-name="Group 9020" transform="translate(0)">
        <g id="Subtraction_90" data-name="Subtraction 90" fill="none">
          <path d="M3,0H15.107a5,5,0,0,1,5,5V30.286a5,5,0,0,1-5,5H6a6,6,0,0,1-6-6V3A3,3,0,0,1,3,0Z" stroke="none"/>
          <path d="M 3.000003814697266 2.999996185302734 L 3.000011444091797 2.999996185302734 C 3.000007629394531 3 3.000005722045898 3.000003814697266 3.000003814697266 2.999996185302734 L 3.000003814697266 29.28559684753418 C 3.000003814697266 30.9398078918457 4.345792770385742 32.28559875488281 6.000002861022949 32.28559875488281 L 15.10716247558594 32.28559875488281 C 16.20996284484863 32.28559875488281 17.10716247558594 31.38839721679688 17.10716247558594 30.28559684753418 L 17.10716247558594 4.999998092651367 C 17.10716247558594 3.897197723388672 16.20996284484863 2.999996185302734 15.10716247558594 2.999996185302734 L 3.000003814697266 2.999996185302734 M 3.000003814697266 -3.814697265625e-06 L 15.10716247558594 -3.814697265625e-06 C 17.86859321594238 -3.814697265625e-06 20.10716247558594 2.238578796386719 20.10716247558594 4.999998092651367 L 20.10716247558594 30.28559684753418 C 20.10716247558594 33.04701614379883 17.86859321594238 35.28559875488281 15.10716247558594 35.28559875488281 L 6.000002861022949 35.28559875488281 C 2.68629264831543 35.28559875488281 3.814697265625e-06 32.59930801391602 3.814697265625e-06 29.28559684753418 L 3.814697265625e-06 2.999996185302734 C 3.814697265625e-06 1.343147277832031 1.343143463134766 -3.814697265625e-06 3.000003814697266 -3.814697265625e-06 Z" stroke="none" fill="#fff"/>
        </g>
      </g>
    </g>
    <path id="Subtraction_93" data-name="Subtraction 93" d="M15.107,35.285H3a3,3,0,0,1-3-3V6A6.007,6.007,0,0,1,6,0h9.107a5.006,5.006,0,0,1,5,5V30.285A5.005,5.005,0,0,1,15.107,35.285Zm-4.812-23.3,2.064,4.092a1.34,1.34,0,0,0,1.382-1.289V1.9A1.339,1.339,0,0,0,12.359.614H8.209A1.34,1.34,0,0,0,6.826,1.9V14.789a1.34,1.34,0,0,0,1.383,1.289Z" transform="translate(18.536)" fill="#fff"/>
    <g id="Scroll_Group_1" data-name="Scroll Group 1" transform="translate(15.986 29.215)" clip-path="url(#clip-path)" style="isolation: isolate">
      <path id="Path_3563" data-name="Path 3563" d="M3.55,0A3.55,3.55,0,0,1,7.1,3.55v.686a3.55,3.55,0,1,1-7.1,0V3.55A3.55,3.55,0,0,1,3.55,0Z" fill="#f7f7f7"/>
    </g>
  </g>
</svg>
