<svg xmlns="http://www.w3.org/2000/svg" width="31.05" height="31.094" viewBox="0 0 31.05 31.094">
  <g id="Group_7383" data-name="Group 7383" transform="translate(0.525 0.503)">
    <g id="Ring_Chart10" data-name="Ring Chart10">
      <path id="Path_2929" data-name="Path 2929" d="M1.449-13.738a1.046,1.046,0,0,1,.374-.8,1.046,1.046,0,0,1,.855-.228,15.687,15.687,0,0,1,11.1,8.063,1.046,1.046,0,0,1,.047.883,1.046,1.046,0,0,1-.647.6l-1.518.493a1.046,1.046,0,0,1-1.235-.483A12.027,12.027,0,0,0,2.29-11.116a1.046,1.046,0,0,1-.841-1.026Z" transform="translate(14.379 14.784)" fill="#bebebe" stroke="rgba(0,0,0,0)" stroke-width="1"/>
      <path id="Path_2930" data-name="Path 2930" d="M13.8-2.879a1.046,1.046,0,0,1,.878.108,1.046,1.046,0,0,1,.481.742,15.687,15.687,0,0,1-4.239,13.046,1.046,1.046,0,0,1-1.6-.111L8.386,9.615a1.046,1.046,0,0,1,.078-1.324,12.027,12.027,0,0,0,3.106-9.56,1.046,1.046,0,0,1,.715-1.117Z" transform="translate(14.688 14.178)" fill="#bebebe" stroke="rgba(0,0,0,0)" stroke-width="1"/>
      <path id="Path_2931" data-name="Path 2931" d="M7.574,12.079a1.046,1.046,0,0,1-.389,1.555,15.687,15.687,0,0,1-13.717,0,1.046,1.046,0,0,1-.557-.687,1.046,1.046,0,0,1,.169-.868l.938-1.291A1.046,1.046,0,0,1-4.7,10.452a12.027,12.027,0,0,0,10.052,0,1.046,1.046,0,0,1,1.283.335Z" transform="translate(14.674 14.787)" fill="#bebebe" stroke="rgba(0,0,0,0)" stroke-width="1"/>
      <path id="Path_2932" data-name="Path 2932" d="M-9.012,10.906a1.046,1.046,0,0,1-.774.429,1.046,1.046,0,0,1-.826-.318A15.687,15.687,0,0,1-14.85-2.029a1.046,1.046,0,0,1,.481-.742,1.046,1.046,0,0,1,.878-.108l1.518.493a1.046,1.046,0,0,1,.715,1.117,12.027,12.027,0,0,0,3.106,9.56,1.046,1.046,0,0,1,.078,1.324Z" transform="translate(15 14.178)" fill="#bebebe" stroke="rgba(0,0,0,0)" stroke-width="1"/>
      <path id="Path_2933" data-name="Path 2933" d="M-12.63-5.218a1.046,1.046,0,0,1-.647-.6,1.046,1.046,0,0,1,.047-.883,15.687,15.687,0,0,1,11.1-8.063,1.046,1.046,0,0,1,.855.228,1.046,1.046,0,0,1,.374.8v1.6a1.046,1.046,0,0,1-.841,1.026A12.027,12.027,0,0,0-9.877-5.208a1.046,1.046,0,0,1-1.235.483Z" transform="translate(15.076 14.784)" fill="#bebebe" stroke="rgba(0,0,0,0)" stroke-width="1"/>
    </g>
  </g>
</svg>
