<svg id="Group_5178" data-name="Group 5178" xmlns="http://www.w3.org/2000/svg" width="24.657" height="21.434" viewBox="0 0 24.657 21.434">
  <g id="Group_3161" data-name="Group 3161" transform="translate(0 0)">
    <g id="Union_164" data-name="Union 164" transform="translate(0 0)" fill="none">
      <path d="M1.189,21.434a1.2,1.2,0,0,1,0-2.4H6.7L3.787,16.1a2.916,2.916,0,0,1,0-4.1L14.849.849a2.86,2.86,0,0,1,4.068,0l4.9,4.937a2.918,2.918,0,0,1,0,4.1L14.74,19.037h8.514a1.2,1.2,0,0,1,0,2.4Z" stroke="none"/>
      <path d="M 11.52944755554199 19.43365859985352 L 22.39457130432129 8.479948043823242 C 22.74581146240234 8.125667572021484 22.74581146240234 7.549227714538574 22.39504051208496 7.195417881011963 L 17.49633026123047 2.257607698440552 C 17.27411079406738 2.033467769622803 17.01648139953613 1.999997735023499 16.8826904296875 1.999997735023499 C 16.7489013671875 1.999997735023499 16.49127006530762 2.033467769622803 16.26870155334473 2.257957696914673 L 5.206820487976074 13.40986824035645 C 4.855600833892822 13.76390743255615 4.855610847473145 14.33996772766113 5.207050800323486 14.69424819946289 L 9.907081604003906 19.43365859985352 L 11.52944755554199 19.43365859985352 M 23.25370979309082 21.43365859985352 L 1.188960671424866 21.43365859985352 C 0.5320206880569458 21.43365859985352 6.805419729971618e-07 20.89677810668945 6.805419729971618e-07 20.23526763916016 C 6.805419729971618e-07 19.57306861877441 0.5320206880569458 19.03687858581543 1.188960671424866 19.03687858581543 L 6.696900844573975 19.03687858581543 L 3.786950588226318 16.10254859924316 C 2.663350582122803 14.96989822387695 2.663350582122803 13.13396739959717 3.786950588226318 12.00132751464844 L 14.84877109527588 0.8494877815246582 C 15.97171115875244 -0.2831622362136841 17.79367065429688 -0.2831622362136841 18.91661071777344 0.8494877815246582 L 23.81486129760742 5.786837577819824 C 24.93780136108398 6.919487953186035 24.93780136108398 8.755407333374023 23.81486129760742 9.888057708740234 L 14.74003028869629 19.03687858581543 L 23.25370979309082 19.03687858581543 C 23.9106502532959 19.03687858581543 24.44267082214355 19.57306861877441 24.44267082214355 20.23526763916016 C 24.44267082214355 20.89677810668945 23.9106502532959 21.43365859985352 23.25370979309082 21.43365859985352 Z" stroke="none" fill="#fff"/>
    </g>
  </g>
</svg>
