<svg xmlns="http://www.w3.org/2000/svg" width="30.025" height="29" viewBox="0 0 30.025 29">
  <g id="Group_8406" data-name="Group 8406" transform="translate(0.979 1.5)">
    <rect id="Rectangle_5315" data-name="Rectangle 5315" width="15" height="24.604" rx="7" transform="translate(0 0.475)" fill="none"/>
    <rect id="Rectangle_5316" data-name="Rectangle 5316" width="15" height="24.604" rx="7" transform="translate(13.027 0.475)" fill="none"/>
    <g id="Group_8404" data-name="Group 8404" transform="translate(0.521 0)">
      <g id="Group_7367" data-name="Group 7367">
        <g id="Group_7365" data-name="Group 7365">
          <path id="Union_486" data-name="Union 486" d="M0,24.726c0-.415.788-.59,1.232-.778v-.526c-.291-.168-.218-.146,0-.016V2.563h.052A3.324,3.324,0,0,0,4.535,0H9.093a5.506,5.506,0,0,1,5.5,5.5V19.1a5.506,5.506,0,0,1-5.5,5.5H2.547a.409.409,0,0,1,.022.127,1.284,1.284,0,0,1-2.569,0Z" transform="translate(12.433)" fill="none" stroke="#bebebe" stroke-linecap="square" stroke-width="3"/>
          <path id="Subtraction_85" data-name="Subtraction 85" d="M7.86,24.458H3.3A3.32,3.32,0,0,0,.052,21.91H0V0H7.86a5.506,5.506,0,0,1,5.5,5.5V18.958A5.506,5.506,0,0,1,7.86,24.458Z" transform="translate(13.36 24.458) rotate(180)" fill="none" stroke="#bebebe" stroke-linecap="square" stroke-width="3"/>
        </g>
      </g>
    </g>
  </g>
</svg>
