<svg xmlns="http://www.w3.org/2000/svg" width="65" height="65" viewBox="0 0 65 65">
  <g id="Group_9548" data-name="Group 9548" transform="translate(-175 -53)">
    <g id="Group_9369" data-name="Group 9369" transform="translate(1.566 -3.434)">
      <g id="Group_8959" data-name="Group 8959" transform="translate(172.434 56.434)">
        <g id="Group_8958" data-name="Group 8958" transform="translate(0 0)">
          <g id="Group_6479" data-name="Group 6479" transform="translate(1)">
            <g id="Group_6360" data-name="Group 6360">
              <g id="Group_6098" data-name="Group 6098">
                <g id="Group_2260" data-name="Group 2260">
                  <rect id="IMG_0460" width="65" height="65" rx="15" fill="#4883c4"/>
                </g>
              </g>
            </g>
          </g>
        </g>
      </g>
    </g>
    <g id="Group_9946" data-name="Group 9946" transform="translate(-6610.25 -2514.372)">
      <path id="Union_560" data-name="Union 560" d="M9.043,27.535c-.769-.844-.654-6.507-.615-7.7,0,.066,0,.78,0,.78l.2-.293S19.776,27.119,20.92,27,37.162,16.754,37.162,16.754s.734,7.883,0,8.795-8.447,8.286-15.419,8.33h-.082C14.736,33.879,9.9,28.472,9.043,27.535Zm-7.853,1.7v-.429A1.821,1.821,0,0,1,1.853,27.4V13.016A7.754,7.754,0,0,1,0,11.5a45.888,45.888,0,0,1,4.135-2.67C5.552,7.957,7.071,7.1,8.68,6.193c.655-.37,1.332-.751,1.994-1.13.923-.494,1.827-.981,2.7-1.453l0,0C17.114,1.592,20.066,0,20.63,0h.016A20.124,20.124,0,0,1,24.232,1.6c1.858.94,4.26,2.221,6.591,3.518,4.434,2.466,9.237,5.329,9.415,5.965.154.553-3.675,3.038-7.728,5.67-.473.307-.949.616-1.424.925l-1.8,1.174,0,0c-4.152,2.716-7.736,5.062-8.635,5.085h-.014c-1.113,0-6.521-3.1-11.21-5.993.077-.049,7.656-4.905,9.463-6.256.62-.464.886-.947.75-1.36s-.689-.7-1.4-.7a3.4,3.4,0,0,0-1.162.22c-1.85.686-9.263,5.956-10.1,6.555-1.02-.649-1.959-1.258-2.8-1.811V27.4a1.817,1.817,0,0,1,.662,1.406v.429a1.823,1.823,0,0,1-3.646,0Z" transform="translate(6797.159 2582.371)" fill="#f7f7f7"/>
    </g>
  </g>
</svg>
