<svg xmlns="http://www.w3.org/2000/svg" width="28.089" height="27.743" viewBox="0 0 28.089 27.743">
  <g id="Group_9956" data-name="Group 9956" transform="translate(-362.332 -823.795)">
    <g id="Group_9947" data-name="Group 9947" transform="translate(362.332 823.795)">
      <path id="Union_560" data-name="Union 560" d="M6.313,22.56c-.537-.689-.458-5.315-.43-6.287,0,.053,0,.637,0,.637l.143-.239s7.778,5.55,8.578,5.454,11.336-8.371,11.336-8.371.51,6.44,0,7.185-5.9,6.769-10.762,6.8h-.057C10.287,27.742,6.913,23.327,6.313,22.56ZM1.552,24.1v-.784a1.268,1.268,0,0,1,.463-.981V10.626A9.842,9.842,0,0,1,0,8.9,31.957,31.957,0,0,1,2.886,6.83c.989-.673,2.049-1.336,3.173-2.038.457-.286.93-.581,1.392-.875.644-.382,1.274-.76,1.885-1.124l0,0A33.015,33.015,0,0,1,14.4,0h.012a13.344,13.344,0,0,1,2.5,1.234c1.3.727,2.974,1.719,4.6,2.723,3.1,1.908,6.447,4.123,6.571,4.616.108.427-2.564,2.35-5.394,4.387l-.994.716c-.422.3-.845.612-1.256.909l0,0c-2.9,2.1-5.4,3.917-6.027,3.936H14.4c-.777,0-4.551-2.4-7.825-4.637.053-.039,5.344-3.8,6.605-4.841.433-.359.618-.733.523-1.052a.945.945,0,0,0-.978-.538,2.157,2.157,0,0,0-.811.17c-1.292.53-6.466,4.608-7.051,5.072q-.648-.457-1.23-.877V22.335a1.268,1.268,0,0,1,.463.981V24.1a1.273,1.273,0,1,1-2.545,0Z" transform="translate(0 0)" fill="#bebebe"/>
    </g>
  </g>
</svg>
