<svg xmlns="http://www.w3.org/2000/svg" width="28" height="27.92" viewBox="0 0 28 27.92">
  <g id="Group_9360" data-name="Group 9360" transform="translate(-276 -823)">
    <g id="Group_9356" data-name="Group 9356" transform="translate(276 823)">
      <g id="Group_9022" data-name="Group 9022" transform="translate(0 0)">
        <g id="Subtraction_89" data-name="Subtraction 89" transform="translate(12.425 0.001)" fill="#01508a">
          <path d="M 10.57590007781982 24.41909980773926 L 2.99970006942749 24.41909980773926 C 2.172760248184204 24.41909980773926 1.50000011920929 23.74633979797363 1.50000011920929 22.91939926147461 L 1.50000011920929 6.00029993057251 C 1.50000011920929 3.518829822540283 3.518830060958862 1.49999988079071 6.000300407409668 1.49999988079071 L 10.57590007781982 1.49999988079071 C 12.50553035736084 1.49999988079071 14.07540035247803 3.070269823074341 14.07540035247803 5.000400066375732 L 14.07540035247803 20.91959953308105 C 14.07540035247803 22.84922981262207 12.50553035736084 24.41909980773926 10.57590007781982 24.41909980773926 Z" stroke="none"/>
          <path d="M 10.57590007781982 22.91909980773926 C 11.67843055725098 22.91909980773926 12.57540035247803 22.02212905883789 12.57540035247803 20.91959953308105 L 12.57540035247803 5.000400066375732 C 12.57540035247803 3.897379875183105 11.67843055725098 3 10.57590007781982 3 L 6.000300407409668 3 C 4.345930099487305 3 3.000000238418579 4.345930099487305 3.000000238418579 6.00029993057251 L 3.000070095062256 22.91732788085938 C 3.000630617141724 22.91793632507324 3.001240253448486 22.91854286193848 3.001847982406616 22.91909980773926 L 10.57590007781982 22.91909980773926 M 10.57590007781982 25.91909980773926 L 2.99970006942749 25.91909980773926 C 1.345660209655762 25.91909980773926 1.762390127169056e-07 24.57344055175781 1.762390127169056e-07 22.91939926147461 L 1.762390127169056e-07 6.00029993057251 C 1.762390127169056e-07 2.691720008850098 2.691720247268677 -9.613037121880552e-08 6.000300407409668 -9.613037121880552e-08 L 10.57590007781982 -9.613037121880552e-08 C 13.3326301574707 -9.613037121880552e-08 15.57540035247803 2.243170022964478 15.57540035247803 5.000400066375732 L 15.57540035247803 20.91959953308105 C 15.57540035247803 23.67633056640625 13.3326301574707 25.91909980773926 10.57590007781982 25.91909980773926 Z" stroke="none" fill="#01508a"/>
        </g>
        <g id="Subtraction_91" data-name="Subtraction 91" transform="translate(15.575 25.92) rotate(180)" fill="none">
          <path d="M10.575,25.919H6a6.007,6.007,0,0,1-6-6V3A3,3,0,0,1,3,0h7.575a5.006,5.006,0,0,1,5,5V20.92A5.006,5.006,0,0,1,10.575,25.919Z" stroke="none"/>
          <path d="M 10.57499980926514 22.91909980773926 C 11.67802047729492 22.91909980773926 12.57540035247803 22.02212905883789 12.57540035247803 20.91959953308105 L 12.57540035247803 5.000400066375732 C 12.57540035247803 3.897379875183105 11.67802047729492 3 10.57499980926514 3 L 3.001772165298462 3.000069856643677 C 3.001164197921753 3.000630378723145 3.000556468963623 3.001239776611328 3.000000238418579 3.001847743988037 L 3.000000238418579 19.91970062255859 C 3.000000238418579 21.57357025146484 4.345930099487305 22.91909980773926 6.000300407409668 22.91909980773926 L 10.57499980926514 22.91909980773926 M 10.57499980926514 25.91909980773926 L 6.000300407409668 25.91909980773926 C 2.691720247268677 25.91909980773926 1.762390127169056e-07 23.22777938842773 1.762390127169056e-07 19.91970062255859 L 1.762390127169056e-07 2.999699831008911 C 1.762390127169056e-07 1.345659852027893 1.345660209655762 -9.613037121880552e-08 2.99970006942749 -9.613037121880552e-08 L 10.57499980926514 -9.613037121880552e-08 C 13.33223056793213 -9.613037121880552e-08 15.57540035247803 2.243170022964478 15.57540035247803 5.000400066375732 L 15.57540035247803 20.91959953308105 C 15.57540035247803 23.67633056640625 13.33223056793213 25.91909980773926 10.57499980926514 25.91909980773926 Z" stroke="none" fill="#01508a"/>
        </g>
      </g>
      <g id="Rectangle_5531" data-name="Rectangle 5531" transform="translate(11.28 22.92)" fill="none" stroke="#01508a" stroke-width="3">
        <rect width="5.5" height="5" rx="2.5" stroke="none"/>
        <rect x="1.5" y="1.5" width="2.5" height="2" rx="1" fill="none"/>
      </g>
    </g>
    <g id="Group_9372" data-name="Group 9372" transform="matrix(0.995, -0.105, 0.105, 0.995, -76.347, 117.92)">
      <g id="Group_9353" data-name="Group 9353" transform="translate(294.64 756.496) rotate(-141)">
        <path id="Union_534" data-name="Union 534" d="M1.02,0A1.02,1.02,0,0,1,2.04,1.02V3.5A1.02,1.02,0,0,1,0,3.5V1.02A1.02,1.02,0,0,1,1.02,0Z" transform="translate(0 2.04) rotate(-90)" fill="#fff"/>
      </g>
      <path id="Union_537" data-name="Union 537" d="M1,0a1,1,0,0,1,1,1V7.148A1,1,0,0,1,0,7.148V1A1,1,0,0,1,1,0Z" transform="translate(298.703 749.223) rotate(43)" fill="#fff"/>
    </g>
  </g>
</svg>
