<svg width="304" height="183" viewBox="0 0 304 183" fill="none" xmlns="http://www.w3.org/2000/svg">
<path d="M248.552 66.0711C248.542 62.6755 248.528 59.2817 248.51 55.8896C248.484 50.8846 245.189 46.7735 240.275 45.9315C239.362 45.7756 238.261 45.6925 236.972 45.6821C232.227 45.6439 227.438 45.6665 222.604 45.7496C222.559 45.7505 222.514 45.7389 222.473 45.7161C222.433 45.6932 222.4 45.66 222.376 45.6197C209.621 23.9027 188.084 8.21727 163.43 2.99918C116.192 -7.00044 69.9412 21.434 57.226 67.6901C57.2119 67.7434 57.1808 67.7907 57.1372 67.8249C57.0936 67.8591 57.04 67.8784 56.9843 67.8798C44.9526 68.2211 34.1967 71.7717 24.7168 78.5317C-2.97181 98.2736 -7.0439 138.197 15.8191 163.136C25.0339 173.188 36.4775 179.193 50.1499 181.152C53.8737 181.688 57.33 181.664 61.3683 181.651C72.3606 181.617 101.46 181.603 148.667 181.61C179.614 181.615 210.56 181.632 241.504 181.659C241.513 181.659 242.466 181.671 244.363 181.693C260.724 181.891 276.435 175.248 287.456 163.396C311.51 137.526 307.11 96.322 277.891 76.2786C269.215 70.3277 259.517 67.0118 248.796 66.331C248.73 66.327 248.668 66.2979 248.622 66.2496C248.577 66.2012 248.552 66.1374 248.552 66.0711Z" stroke="#D5D6D6" stroke-width="2"/>
<path d="M245.091 55.7054C245.091 53.9576 244.396 52.2814 243.161 51.0455C241.925 49.8096 240.248 49.1152 238.501 49.1152H120.839C119.091 49.1152 117.415 49.8096 116.179 51.0455C114.943 52.2814 114.249 53.9576 114.249 55.7054V76.7597C114.249 78.5075 114.943 80.1838 116.179 81.4197C117.415 82.6556 119.091 83.3499 120.839 83.3499H238.501C240.248 83.3499 241.925 82.6556 243.161 81.4197C244.396 80.1838 245.091 78.5075 245.091 76.7597V55.7054Z" stroke="#D5D6D6" stroke-width="2"/>
<path d="M114.056 159.633C114.047 159.73 114.075 159.815 114.139 159.888C114.179 159.935 114.202 159.993 114.204 160.054C114.254 163.141 114.27 166.229 114.251 169.318C114.227 172.551 115.555 175.194 118.754 176.22C119.508 176.461 120.635 176.581 122.135 176.581C160.41 176.578 198.685 176.578 236.962 176.581C238.595 176.581 239.803 176.457 240.584 176.21C244.064 175.11 245.101 172.27 245.098 168.884C245.091 162.549 245.09 156.212 245.095 149.875C245.098 146.187 243.648 143.454 239.833 142.5C238.955 142.282 237.424 142.341 236.606 142.341C204.244 142.34 171.883 142.341 139.523 142.344C138.471 142.346 137.797 142.363 137.501 142.396" stroke="#D5D6D6" stroke-width="2"/>
<path d="M137.501 142.398L130.167 130.01" stroke="#404247" stroke-width="2"/>
<path d="M130.168 130.01C130.282 129.984 130.558 129.972 130.996 129.974C151.417 130.015 184.543 130.02 230.377 129.989C232.011 129.989 234.225 129.919 236.156 129.945C238.18 129.974 239.528 129.901 240.2 129.724C242.765 129.048 245.101 126.525 245.098 123.698C245.086 116.882 245.088 110.065 245.103 103.246C245.111 99.8785 243.853 97.1291 240.473 96.0689C239.679 95.8211 238.448 95.6973 236.78 95.6973C198.384 95.699 159.988 95.7068 121.592 95.7207C117.28 95.7224 114.807 97.7926 114.173 101.931C114.126 102.233 114.04 102.429 113.916 102.519" stroke="#D5D6D6" stroke-width="2"/>
<path d="M113.916 102.518C109.277 94.791 104.669 87.0444 100.094 79.2779C99.425 78.1414 98.888 77.3497 98.4826 76.9027C95.2628 73.3581 89.7563 73.0723 86.2403 76.3518C85.6166 76.9339 84.8985 77.9101 84.086 79.2805C70.793 101.709 57.5053 124.14 44.2227 146.575C41.2862 151.533 43.9056 157.7 49.3862 159.254C50.1797 159.479 51.2503 159.593 52.5981 159.594C73.0842 159.622 93.5702 159.635 114.056 159.633" stroke="#404247" stroke-width="2"/>
<path d="M113.916 102.518L130.168 130.009" stroke="#404247" stroke-width="2"/>
<path d="M137.501 142.396C138.332 143.831 139.156 145.263 139.972 146.692C142.779 151.601 140.315 157.674 134.902 159.223C134.045 159.467 132.782 159.593 131.113 159.6C125.427 159.624 119.742 159.635 114.056 159.633" stroke="#404247" stroke-width="2"/>
<path d="M186.751 66.2297C186.751 64.3496 186.004 62.5464 184.674 61.217C183.345 59.8875 181.542 59.1406 179.661 59.1406C177.781 59.1406 175.978 59.8875 174.649 61.217C173.319 62.5464 172.572 64.3496 172.572 66.2297C172.572 68.1099 173.319 69.9131 174.649 71.2425C175.978 72.572 177.781 73.3189 179.661 73.3189C181.542 73.3189 183.345 72.572 184.674 71.2425C186.004 69.9131 186.751 68.1099 186.751 66.2297Z" stroke="#D5D6D6" stroke-width="2"/>
<path d="M210.079 66.2271C210.079 64.3456 209.331 62.5411 208.001 61.2107C206.67 59.8802 204.866 59.1328 202.984 59.1328C201.103 59.1328 199.298 59.8802 197.968 61.2107C196.638 62.5411 195.89 64.3456 195.89 66.2271C195.89 68.1087 196.638 69.9131 197.968 71.2436C199.298 72.574 201.103 73.3215 202.984 73.3215C204.866 73.3215 206.67 72.574 208.001 71.2436C209.331 69.9131 210.079 68.1087 210.079 66.2271Z" stroke="#D5D6D6" stroke-width="2"/>
<path d="M233.95 66.2265C233.95 64.3456 233.203 62.5418 231.873 61.2119C230.543 59.8819 228.739 59.1348 226.858 59.1348C224.977 59.1348 223.174 59.8819 221.844 61.2119C220.514 62.5418 219.767 64.3456 219.767 66.2265C219.767 68.1073 220.514 69.9112 221.844 71.2411C223.174 72.5711 224.977 73.3182 226.858 73.3182C228.739 73.3182 230.543 72.5711 231.873 71.2411C233.203 69.9112 233.95 68.1073 233.95 66.2265Z" stroke="#D5D6D6" stroke-width="2"/>
<path d="M95.868 97.1414C95.868 96.1772 95.485 95.2525 94.8032 94.5707C94.1214 93.8889 93.1967 93.5059 92.2325 93.5059H91.9051C90.9409 93.5059 90.0161 93.8889 89.3344 94.5707C88.6526 95.2525 88.2695 96.1772 88.2695 97.1414V125.706C88.2695 126.67 88.6526 127.595 89.3344 128.276C90.0161 128.958 90.9409 129.341 91.9051 129.341H92.2325C93.1967 129.341 94.1214 128.958 94.8032 128.276C95.485 127.595 95.868 126.67 95.868 125.706V97.1414Z" stroke="#404247" stroke-width="2"/>
<path d="M98.6149 139.9C98.6149 138.17 97.9274 136.51 96.7037 135.286C95.48 134.062 93.8203 133.375 92.0897 133.375C91.2328 133.375 90.3843 133.544 89.5926 133.872C88.8009 134.2 88.0816 134.68 87.4756 135.286C86.8697 135.892 86.3891 136.611 86.0612 137.403C85.7332 138.195 85.5645 139.043 85.5645 139.9C85.5645 140.757 85.7332 141.606 86.0612 142.397C86.3891 143.189 86.8697 143.908 87.4756 144.514C88.0816 145.12 88.8009 145.601 89.5926 145.929C90.3843 146.257 91.2328 146.425 92.0897 146.425C93.8203 146.425 95.48 145.738 96.7037 144.514C97.9274 143.291 98.6149 141.631 98.6149 139.9Z" stroke="#404247" stroke-width="2"/>
<path d="M186.751 112.851C186.751 110.971 186.004 109.168 184.674 107.838C183.345 106.509 181.542 105.762 179.661 105.762C177.781 105.762 175.978 106.509 174.649 107.838C173.319 109.168 172.572 110.971 172.572 112.851C172.572 114.731 173.319 116.534 174.649 117.864C175.978 119.193 177.781 119.94 179.661 119.94C181.542 119.94 183.345 119.193 184.674 117.864C186.004 116.534 186.751 114.731 186.751 112.851Z" stroke="#D5D6D6" stroke-width="2"/>
<path d="M210.076 112.85C210.076 110.969 209.329 109.165 207.999 107.835C206.669 106.505 204.865 105.758 202.984 105.758C201.103 105.758 199.3 106.505 197.97 107.835C196.64 109.165 195.893 110.969 195.893 112.85C195.893 114.73 196.64 116.534 197.97 117.864C199.3 119.194 201.103 119.941 202.984 119.941C204.865 119.941 206.669 119.194 207.999 117.864C209.329 116.534 210.076 114.73 210.076 112.85Z" stroke="#D5D6D6" stroke-width="2"/>
<path d="M233.95 112.85C233.95 110.969 233.203 109.165 231.873 107.835C230.543 106.505 228.739 105.758 226.858 105.758C224.977 105.758 223.174 106.505 221.844 107.835C220.514 109.165 219.767 110.969 219.767 112.85C219.767 114.73 220.514 116.534 221.844 117.864C223.174 119.194 224.977 119.941 226.858 119.941C228.739 119.941 230.543 119.194 231.873 117.864C233.203 116.534 233.95 114.73 233.95 112.85Z" stroke="#D5D6D6" stroke-width="2"/>
<path d="M233.952 159.475C233.952 157.594 233.205 155.789 231.874 154.459C230.544 153.128 228.74 152.381 226.858 152.381C224.976 152.381 223.172 153.128 221.842 154.459C220.511 155.789 219.764 157.594 219.764 159.475C219.764 161.357 220.511 163.161 221.842 164.492C223.172 165.822 224.976 166.57 226.858 166.57C228.74 166.57 230.544 165.822 231.874 164.492C233.205 163.161 233.952 161.357 233.952 159.475Z" stroke="#D5D6D6" stroke-width="2"/>
<path d="M186.753 159.476C186.753 157.596 186.006 155.792 184.676 154.462C183.346 153.132 181.542 152.385 179.662 152.385C177.781 152.385 175.977 153.132 174.647 154.462C173.317 155.792 172.57 157.596 172.57 159.476C172.57 161.357 173.317 163.161 174.647 164.491C175.977 165.821 177.781 166.568 179.662 166.568C181.542 166.568 183.346 165.821 184.676 164.491C186.006 163.161 186.753 161.357 186.753 159.476Z" stroke="#D5D6D6" stroke-width="2"/>
<path d="M210.079 159.48C210.079 157.6 209.332 155.796 208.002 154.466C206.672 153.136 204.868 152.389 202.987 152.389C201.106 152.389 199.303 153.136 197.973 154.466C196.643 155.796 195.896 157.6 195.896 159.48C195.896 161.361 196.643 163.165 197.973 164.495C199.303 165.825 201.106 166.572 202.987 166.572C204.868 166.572 206.672 165.825 208.002 164.495C209.332 163.165 210.079 161.361 210.079 159.48Z" stroke="#D5D6D6" stroke-width="2"/>
<path d="M248.796 66.331C259.517 67.0118 269.215 70.3277 277.891 76.2786C307.11 96.322 311.51 137.526 287.456 163.396C276.435 175.248 260.724 181.891 244.363 181.693C242.466 181.671 241.513 181.659 241.504 181.659C210.56 181.632 179.614 181.615 148.667 181.61C101.46 181.603 72.3606 181.617 61.3683 181.651C57.33 181.664 53.8737 181.688 50.1499 181.152C36.4775 179.193 25.0339 173.188 15.8191 163.136C-7.0439 138.197 -2.97181 98.2736 24.7168 78.5317C34.1967 71.7717 44.9526 68.2211 56.9843 67.8798C57.04 67.8784 57.0936 67.8591 57.1372 67.8249C57.1808 67.7907 57.2119 67.7434 57.226 67.6901C69.9412 21.434 116.192 -7.00044 163.43 2.99918C188.084 8.21727 209.621 23.9027 222.376 45.6197C222.4 45.66 222.433 45.6932 222.473 45.7161C222.514 45.7389 222.559 45.7505 222.604 45.7496C227.438 45.6665 232.227 45.6439 236.972 45.6821C238.261 45.6925 239.362 45.7756 240.275 45.9315C245.189 46.7735 248.484 50.8846 248.51 55.8896C248.528 59.2817 248.542 62.6755 248.552 66.0711C248.552 66.1374 248.577 66.2012 248.622 66.2496C248.668 66.2979 248.73 66.327 248.796 66.331ZM245.091 55.7051C245.091 53.9572 244.396 52.281 243.16 51.0451C241.924 49.8092 240.248 49.1149 238.5 49.1149H120.838C119.091 49.1149 117.414 49.8092 116.179 51.0451C114.943 52.281 114.248 53.9572 114.248 55.7051V76.7594C114.248 78.5072 114.943 80.1834 116.179 81.4193C117.414 82.6552 119.091 83.3496 120.838 83.3496H238.5C240.248 83.3496 241.924 82.6552 243.16 81.4193C244.396 80.1834 245.091 78.5072 245.091 76.7594V55.7051ZM114.056 159.633C114.047 159.73 114.075 159.815 114.139 159.888C114.179 159.935 114.202 159.994 114.204 160.054C114.254 163.141 114.27 166.229 114.251 169.318C114.227 172.551 115.555 175.194 118.754 176.22C119.508 176.461 120.635 176.581 122.135 176.581C160.41 176.578 198.685 176.578 236.962 176.581C238.596 176.581 239.803 176.458 240.584 176.21C244.064 175.111 245.101 172.27 245.098 168.884C245.091 162.549 245.091 156.212 245.096 149.875C245.098 146.188 243.648 143.454 239.833 142.5C238.955 142.282 237.424 142.342 236.606 142.342C204.244 142.34 171.883 142.341 139.523 142.344C138.471 142.346 137.797 142.363 137.501 142.396L130.168 130.008C130.282 129.982 130.558 129.97 130.997 129.972C151.417 130.014 184.544 130.019 230.377 129.988C232.011 129.988 234.226 129.917 236.156 129.943C238.18 129.973 239.528 129.899 240.2 129.723C242.765 129.047 245.101 126.524 245.098 123.696C245.086 116.881 245.088 110.064 245.104 103.245C245.111 99.877 243.854 97.1276 240.473 96.0674C239.679 95.8196 238.448 95.6958 236.78 95.6958C198.384 95.6975 159.988 95.7053 121.592 95.7192C117.28 95.7209 114.807 97.7911 114.173 101.93C114.126 102.231 114.04 102.427 113.916 102.517C109.276 94.7906 104.669 87.044 100.093 79.2775C99.4247 78.141 98.8876 77.3493 98.4822 76.9023C95.2625 73.3577 89.756 73.0719 86.24 76.3514C85.6163 76.9335 84.8982 77.9097 84.0857 79.2801C70.7927 101.708 57.5049 124.14 44.2223 146.575C41.2859 151.533 43.9053 157.7 49.3859 159.254C50.1793 159.479 51.25 159.592 52.5978 159.594C73.0839 159.622 93.5699 159.635 114.056 159.633Z" fill="#D5D6D6"/>
<path d="M245.091 76.7597C245.091 78.5075 244.396 80.1838 243.161 81.4197C241.925 82.6556 240.248 83.3499 238.501 83.3499H120.839C119.091 83.3499 117.415 82.6556 116.179 81.4197C114.943 80.1838 114.249 78.5075 114.249 76.7597V55.7054C114.249 53.9576 114.943 52.2814 116.179 51.0455C117.415 49.8096 119.091 49.1152 120.839 49.1152H238.501C240.248 49.1152 241.925 49.8096 243.161 51.0455C244.396 52.2814 245.091 53.9576 245.091 55.7054V76.7597ZM186.751 66.23C186.751 64.3498 186.004 62.5467 184.675 61.2172C183.345 59.8877 181.542 59.1408 179.662 59.1408C177.782 59.1408 175.979 59.8877 174.649 61.2172C173.32 62.5467 172.573 64.3498 172.573 66.23C172.573 68.1101 173.32 69.9133 174.649 71.2427C175.979 72.5722 177.782 73.3191 179.662 73.3191C181.542 73.3191 183.345 72.5722 184.675 71.2427C186.004 69.9133 186.751 68.1101 186.751 66.23ZM210.079 66.2274C210.079 64.3458 209.332 62.5414 208.001 61.2109C206.671 59.8805 204.866 59.133 202.985 59.133C201.103 59.133 199.299 59.8805 197.968 61.2109C196.638 62.5414 195.89 64.3458 195.89 66.2274C195.89 68.1089 196.638 69.9134 197.968 71.2438C199.299 72.5743 201.103 73.3217 202.985 73.3217C204.866 73.3217 206.671 72.5743 208.001 71.2438C209.332 69.9134 210.079 68.1089 210.079 66.2274ZM233.95 66.2274C233.95 64.3465 233.203 62.5427 231.873 61.2128C230.543 59.8828 228.739 59.1356 226.859 59.1356C224.978 59.1356 223.174 59.8828 221.844 61.2128C220.514 62.5427 219.767 64.3465 219.767 66.2274C219.767 68.1082 220.514 69.912 221.844 71.242C223.174 72.5719 224.978 73.3191 226.859 73.3191C228.739 73.3191 230.543 72.5719 231.873 71.242C233.203 69.912 233.95 68.1082 233.95 66.2274Z" fill="white"/>
<path d="M179.661 73.3189C183.577 73.3189 186.751 70.145 186.751 66.2297C186.751 62.3145 183.577 59.1406 179.661 59.1406C175.746 59.1406 172.572 62.3145 172.572 66.2297C172.572 70.145 175.746 73.3189 179.661 73.3189Z" fill="#D5D6D6"/>
<path d="M202.984 73.3215C206.903 73.3215 210.079 70.1452 210.079 66.2271C210.079 62.309 206.903 59.1328 202.984 59.1328C199.066 59.1328 195.89 62.309 195.89 66.2271C195.89 70.1452 199.066 73.3215 202.984 73.3215Z" fill="#D5D6D6"/>
<path d="M226.858 73.3182C230.775 73.3182 233.95 70.1431 233.95 66.2265C233.95 62.3098 230.775 59.1348 226.858 59.1348C222.942 59.1348 219.767 62.3098 219.767 66.2265C219.767 70.1431 222.942 73.3182 226.858 73.3182Z" fill="#D5D6D6"/>
<path d="M113.916 102.518L130.168 130.009L137.501 142.397C138.333 143.831 139.157 145.263 139.973 146.692C142.779 151.601 140.316 157.674 134.903 159.223C134.045 159.467 132.782 159.593 131.114 159.6C125.428 159.624 119.742 159.635 114.056 159.633C93.5702 159.635 73.0842 159.622 52.5981 159.594C51.2503 159.593 50.1797 159.479 49.3862 159.254C43.9056 157.7 41.2862 151.533 44.2227 146.575C57.5053 124.14 70.793 101.709 84.086 79.2805C84.8985 77.9101 85.6166 76.9339 86.2403 76.3518C89.7563 73.0723 95.2628 73.3581 98.4826 76.9027C98.888 77.3497 99.425 78.1414 100.094 79.2779C104.669 87.0444 109.277 94.791 113.916 102.518ZM95.8683 97.141C95.8683 96.1768 95.4853 95.2521 94.8035 94.5703C94.1217 93.8885 93.197 93.5055 92.2328 93.5055H91.9054C90.9412 93.5055 90.0165 93.8885 89.3347 94.5703C88.6529 95.2521 88.2699 96.1768 88.2699 97.141V125.705C88.2699 126.67 88.6529 127.594 89.3347 128.276C90.0165 128.958 90.9412 129.341 91.9054 129.341H92.2328C93.197 129.341 94.1217 128.958 94.8035 128.276C95.4853 127.594 95.8683 126.67 95.8683 125.705V97.141ZM98.6151 139.899C98.6151 138.169 97.9276 136.509 96.7039 135.285C95.4802 134.062 93.8205 133.374 92.0899 133.374C91.233 133.374 90.3845 133.543 89.5928 133.871C88.8011 134.199 88.0818 134.679 87.4759 135.285C86.8699 135.891 86.3893 136.611 86.0614 137.402C85.7334 138.194 85.5647 139.042 85.5647 139.899C85.5647 140.756 85.7334 141.605 86.0614 142.396C86.3893 143.188 86.8699 143.907 87.4759 144.513C88.0818 145.119 88.8011 145.6 89.5928 145.928C90.3845 146.256 91.233 146.424 92.0899 146.424C93.8205 146.424 95.4802 145.737 96.7039 144.513C97.9276 143.29 98.6151 141.63 98.6151 139.899Z" fill="#404247"/>
<path d="M92.232 93.5059H91.9046C89.8967 93.5059 88.269 95.1335 88.269 97.1414V125.706C88.269 127.714 89.8967 129.341 91.9046 129.341H92.232C94.2398 129.341 95.8675 127.714 95.8675 125.706V97.1414C95.8675 95.1335 94.2398 93.5059 92.232 93.5059Z" fill="#D5D6D6"/>
<path d="M130.168 130.01L113.916 102.519C114.04 102.429 114.126 102.233 114.173 101.931C114.807 97.7926 117.28 95.7224 121.592 95.7207C159.988 95.7068 198.384 95.699 236.78 95.6973C238.448 95.6973 239.679 95.8211 240.473 96.0689C243.853 97.1291 245.111 99.8785 245.103 103.246C245.088 110.065 245.086 116.882 245.098 123.698C245.101 126.525 242.765 129.048 240.2 129.724C239.528 129.901 238.18 129.974 236.156 129.945C234.225 129.919 232.011 129.989 230.377 129.989C184.543 130.02 151.417 130.015 130.996 129.974C130.558 129.972 130.282 129.984 130.168 130.01ZM186.751 112.854C186.751 110.973 186.004 109.17 184.674 107.841C183.345 106.511 181.542 105.764 179.661 105.764C177.781 105.764 175.978 106.511 174.649 107.841C173.319 109.17 172.572 110.973 172.572 112.854C172.572 114.734 173.319 116.537 174.649 117.866C175.978 119.196 177.781 119.943 179.661 119.943C181.542 119.943 183.345 119.196 184.674 117.866C186.004 116.537 186.751 114.734 186.751 112.854ZM210.076 112.851C210.076 110.97 209.329 109.166 207.999 107.836C206.669 106.506 204.865 105.759 202.984 105.759C201.104 105.759 199.3 106.506 197.97 107.836C196.64 109.166 195.893 110.97 195.893 112.851C195.893 114.732 196.64 116.536 197.97 117.866C199.3 119.196 201.104 119.943 202.984 119.943C204.865 119.943 206.669 119.196 207.999 117.866C209.329 116.536 210.076 114.732 210.076 112.851ZM233.95 112.851C233.95 110.97 233.203 109.166 231.873 107.836C230.543 106.506 228.739 105.759 226.858 105.759C224.977 105.759 223.174 106.506 221.844 107.836C220.514 109.166 219.767 110.97 219.767 112.851C219.767 114.732 220.514 116.536 221.844 117.866C223.174 119.196 224.977 119.943 226.858 119.943C228.739 119.943 230.543 119.196 231.873 117.866C233.203 116.536 233.95 114.732 233.95 112.851Z" fill="white"/>
<path d="M179.661 119.94C183.577 119.94 186.751 116.766 186.751 112.851C186.751 108.936 183.577 105.762 179.661 105.762C175.746 105.762 172.572 108.936 172.572 112.851C172.572 116.766 175.746 119.94 179.661 119.94Z" fill="#D5D6D6"/>
<path d="M202.984 119.941C206.901 119.941 210.076 116.766 210.076 112.85C210.076 108.933 206.901 105.758 202.984 105.758C199.068 105.758 195.893 108.933 195.893 112.85C195.893 116.766 199.068 119.941 202.984 119.941Z" fill="#D5D6D6"/>
<path d="M226.858 119.941C230.775 119.941 233.95 116.766 233.95 112.85C233.95 108.933 230.775 105.758 226.858 105.758C222.942 105.758 219.767 108.933 219.767 112.85C219.767 116.766 222.942 119.941 226.858 119.941Z" fill="#D5D6D6"/>
<path d="M92.0897 146.425C95.6935 146.425 98.6149 143.504 98.6149 139.9C98.6149 136.296 95.6935 133.375 92.0897 133.375C88.4859 133.375 85.5645 136.296 85.5645 139.9C85.5645 143.504 88.4859 146.425 92.0897 146.425Z" fill="#D5D6D6"/>
<path d="M114.056 159.633C119.742 159.635 125.427 159.623 131.113 159.599C132.782 159.592 134.045 159.467 134.902 159.222C140.315 157.674 142.779 151.6 139.972 146.692C139.156 145.262 138.332 143.831 137.501 142.396C137.797 142.363 138.471 142.346 139.523 142.344C171.883 142.341 204.244 142.34 236.606 142.341C237.424 142.341 238.955 142.282 239.833 142.5C243.648 143.454 245.098 146.187 245.095 149.875C245.09 156.212 245.091 162.549 245.098 168.884C245.101 172.27 244.064 175.11 240.584 176.21C239.803 176.457 238.595 176.581 236.962 176.581C198.685 176.578 160.41 176.578 122.135 176.581C120.635 176.581 119.508 176.461 118.754 176.22C115.555 175.194 114.227 172.551 114.251 169.318C114.27 166.229 114.254 163.141 114.204 160.054C114.202 159.993 114.179 159.935 114.139 159.888C114.075 159.815 114.047 159.73 114.056 159.633ZM233.952 159.474C233.952 157.593 233.205 155.788 231.875 154.458C230.544 153.128 228.74 152.38 226.858 152.38C224.977 152.38 223.172 153.128 221.842 154.458C220.511 155.788 219.764 157.593 219.764 159.474C219.764 161.356 220.511 163.16 221.842 164.491C223.172 165.821 224.977 166.569 226.858 166.569C228.74 166.569 230.544 165.821 231.875 164.491C233.205 163.16 233.952 161.356 233.952 159.474ZM186.753 159.477C186.753 157.596 186.006 155.792 184.676 154.462C183.346 153.132 181.542 152.385 179.661 152.385C177.781 152.385 175.977 153.132 174.647 154.462C173.317 155.792 172.57 157.596 172.57 159.477C172.57 161.358 173.317 163.162 174.647 164.492C175.977 165.822 177.781 166.569 179.661 166.569C181.542 166.569 183.346 165.822 184.676 164.492C186.006 163.162 186.753 161.358 186.753 159.477ZM210.079 159.48C210.079 157.599 209.331 155.795 208.001 154.465C206.672 153.135 204.868 152.388 202.987 152.388C201.106 152.388 199.302 153.135 197.972 154.465C196.642 155.795 195.895 157.599 195.895 159.48C195.895 161.36 196.642 163.164 197.972 164.494C199.302 165.824 201.106 166.571 202.987 166.571C204.868 166.571 206.672 165.824 208.001 164.494C209.331 163.164 210.079 161.36 210.079 159.48Z" fill="white"/>
<path d="M226.858 166.57C230.776 166.57 233.952 163.393 233.952 159.475C233.952 155.557 230.776 152.381 226.858 152.381C222.94 152.381 219.764 155.557 219.764 159.475C219.764 163.393 222.94 166.57 226.858 166.57Z" fill="#D5D6D6"/>
<path d="M179.662 166.568C183.578 166.568 186.753 163.393 186.753 159.476C186.753 155.56 183.578 152.385 179.662 152.385C175.745 152.385 172.57 155.56 172.57 159.476C172.57 163.393 175.745 166.568 179.662 166.568Z" fill="#D5D6D6"/>
<path d="M202.987 166.572C206.904 166.572 210.079 163.397 210.079 159.48C210.079 155.564 206.904 152.389 202.987 152.389C199.071 152.389 195.896 155.564 195.896 159.48C195.896 163.397 199.071 166.572 202.987 166.572Z" fill="#D5D6D6"/>
</svg>
