<svg id="knowledge" xmlns="http://www.w3.org/2000/svg" width="30.035" height="22.244" viewBox="0 0 30.035 22.244">
  <g id="Path_174" data-name="Path 174" transform="translate(-55.779 -47.399)" fill="none" stroke-linecap="square">
    <path d="M84.022,56.226,80.331,67.615H61.166L57.475,56.226a1.572,1.572,0,0,1,.374-1.6,1.251,1.251,0,0,1,1.492-.222l5.632,3.041,4.5-7.05a1.625,1.625,0,0,1,.558-.536,1.457,1.457,0,0,1,.721-.194h.01a1.529,1.529,0,0,1,1.269.73l4.5,7.051L82.156,54.4a1.251,1.251,0,0,1,1.492.222A1.571,1.571,0,0,1,84.022,56.226Z" stroke="none"/>
    <path d="M 70.74834442138672 53.96795654296875 L 66.00164031982422 61.40862655639648 L 61.52472686767578 58.99139785766602 L 63.34715270996094 64.61514282226562 L 78.149658203125 64.61514282226562 L 79.97189331054688 58.99201583862305 L 75.49520111083984 61.40974807739258 L 70.74834442138672 53.96795654296875 M 70.74840545654297 49.66398620605469 L 70.75824737548828 49.66398620605469 C 71.26332092285156 49.66783142089844 71.73675537109375 49.93995666503906 72.02693939208984 50.3939208984375 L 76.52421569824219 57.4444465637207 L 82.15605163574219 54.40285873413086 C 82.65061187744141 54.13537216186523 83.23649597167969 54.22249603271484 83.64816284179688 54.62481689453125 C 84.05987548828125 55.02721786499023 84.20672607421875 55.65542984008789 84.02191162109375 56.22579956054688 L 80.33106994628906 67.61514282226562 L 61.16574096679688 67.61514282226562 L 57.47492218017578 56.22579956054688 C 57.29017639160156 55.65617752075195 57.43701171875 55.02721786499023 57.84867095947266 54.62481689453125 C 58.26032257080078 54.222412109375 58.84619903564453 54.13536071777344 59.34078216552734 54.40285873413086 L 64.97258758544922 57.44364929199219 L 69.46990203857422 50.3939208984375 C 69.61598205566406 50.16575622558594 69.8084716796875 49.98310852050781 70.02762603759766 49.85747528076172 C 70.24753570556641 49.73258972167969 70.49407958984375 49.66398620605469 70.74840545654297 49.66398620605469 Z" stroke="none" fill="#bebebe"/>
  </g>
  <g id="Group_113" data-name="Group 113">
    <path id="Path_3348" data-name="Path 3348" d="M1.783,0A1.8,1.8,0,0,1,3.565,1.821,1.8,1.8,0,0,1,1.783,3.641,1.8,1.8,0,0,1,0,1.821,1.8,1.8,0,0,1,1.783,0Z" transform="translate(13.174)" fill="#bebebe"/>
    <path id="Path_3349" data-name="Path 3349" d="M1.783,0A1.8,1.8,0,0,1,3.565,1.821,1.8,1.8,0,0,1,1.783,3.641,1.8,1.8,0,0,1,0,1.821,1.8,1.8,0,0,1,1.783,0Z" transform="translate(0 5.286)" fill="#bebebe"/>
    <rect id="Rectangle_26" data-name="Rectangle 26" width="22.808" height="2.176" transform="translate(3.565 20.068)" fill="#bebebe"/>
  </g>
  <g id="Group_114" data-name="Group 114" transform="translate(14.834 0)">
    <path id="Path_177" data-name="Path 177" d="M256.146,20.673V17.032a1.821,1.821,0,0,1,0,3.641Z" transform="translate(-256.146 -17.032)" fill="#bebebe"/>
    <rect id="Rectangle_27" data-name="Rectangle 27" width="11.54" height="2.176" transform="translate(0 20.068)" fill="#bebebe"/>
    <path id="Path_178" data-name="Path 178" d="M429.145,85.665a1.821,1.821,0,1,1-1.782,1.82A1.8,1.8,0,0,1,429.145,85.665Z" transform="translate(-415.727 -80.613)" fill="#bebebe"/>
  </g>
</svg>
