<svg xmlns="http://www.w3.org/2000/svg" xmlns:xlink="http://www.w3.org/1999/xlink" width="98.325" height="94.922" viewBox="0 0 98.325 94.922">
  <defs>
    <filter id="Path_2213" x="12.345" y="13.029" width="82.178" height="75.98" filterUnits="userSpaceOnUse">
      <feOffset dy="20" input="SourceAlpha"/>
      <feGaussianBlur stdDeviation="5" result="blur"/>
      <feFlood flood-opacity="0.161"/>
      <feComposite operator="in" in2="blur"/>
      <feComposite in="SourceGraphic"/>
    </filter>
    <filter id="Rectangle_3009" x="60.523" y="42.348" width="37.803" height="32.852" filterUnits="userSpaceOnUse">
      <feOffset dy="3" input="SourceAlpha"/>
      <feGaussianBlur stdDeviation="3" result="blur-2"/>
      <feFlood flood-opacity="0.161"/>
      <feComposite operator="in" in2="blur-2"/>
      <feComposite in="SourceGraphic"/>
    </filter>
    <filter id="Rectangle_3011" x="0" y="27.67" width="53.205" height="45.529" filterUnits="userSpaceOnUse">
      <feOffset dy="3" input="SourceAlpha"/>
      <feGaussianBlur stdDeviation="3" result="blur-3"/>
      <feFlood flood-opacity="0.161"/>
      <feComposite operator="in" in2="blur-3"/>
      <feComposite in="SourceGraphic"/>
    </filter>
    <filter id="Path_1865" x="17.264" y="0" width="72.843" height="39.214" filterUnits="userSpaceOnUse">
      <feOffset dy="3" input="SourceAlpha"/>
      <feGaussianBlur stdDeviation="3" result="blur-4"/>
      <feFlood flood-opacity="0.161"/>
      <feComposite operator="in" in2="blur-4"/>
      <feComposite in="SourceGraphic"/>
    </filter>
  </defs>
  <g id="Component_5_1" data-name="Component 5 – 1" transform="translate(9 6)">
    <g id="Group_7787" data-name="Group 7787">
      <g id="Group_7776" data-name="Group 7776">
        <g id="Group_7499" data-name="Group 7499">
          <g id="Group_5415" data-name="Group 5415">
            <g id="Group_5206" data-name="Group 5206">
              <g transform="matrix(1, 0, 0, 1, -9, -6)" filter="url(#Path_2213)">
                <path id="Path_2213-2" data-name="Path 2213" d="M20.49,0h11.2a20.49,20.49,0,0,1,0,40.98H20.49A20.49,20.49,0,0,1,20.49,0Z" transform="translate(27.34 13.03)" fill="#096a94"/>
              </g>
              <g id="Group_4259" data-name="Group 4259" transform="translate(0 4.012)">
                <g transform="matrix(1, 0, 0, 1, -9, -10.01)" filter="url(#Rectangle_3009)">
                  <rect id="Rectangle_3009-2" data-name="Rectangle 3009" width="19.803" height="14.852" rx="7.426" transform="translate(69.52 48.35)" fill="#035a9a"/>
                </g>
                <g transform="matrix(1, 0, 0, 1, -9, -10.01)" filter="url(#Rectangle_3011)">
                  <rect id="Rectangle_3011-2" data-name="Rectangle 3011" width="31.166" height="16.677" rx="8.338" transform="matrix(0.92, 0.39, -0.39, 0.92, 15.52, 33.67)" fill="#035a9a"/>
                </g>
                <path id="Path_913" data-name="Path 913" d="M25.57,0c14.122,0,25.57,13.8,25.57,30.829V51.306c0,17.026-11.448,30.829-25.57,30.829S0,68.332,0,51.306V30.829C0,13.8,11.448,0,25.57,0Z" transform="translate(18.867 0)" fill="#035a9a"/>
              </g>
              <rect id="Rectangle_3508" data-name="Rectangle 3508" width="41.598" height="26.456" rx="13.228" transform="translate(24.117 14.75)" fill="#fff"/>
              <rect id="Rectangle_3507" data-name="Rectangle 3507" width="7.994" height="5.839" rx="2.919" transform="translate(8.254 34.166) rotate(25)" fill="#08cafe"/>
              <g transform="matrix(1, 0, 0, 1, -9, -6)" filter="url(#Path_1865)">
                <path id="Path_1865-2" data-name="Path 1865" d="M53.924,47.249c1.224-.516,1.224-1.36,0-1.876L29.648,37.035a6.6,6.6,0,0,0-4.453,0L.918,45.373c-1.224.516-1.224,1.36,0,1.876L25.195,57.475a6.6,6.6,0,0,0,4.453,0" transform="translate(26.26 -30.65)" fill="#035a9a"/>
              </g>
              <g id="Group_4263" data-name="Group 4263" transform="translate(29.23 11.95)">
                <path id="Path_1790" data-name="Path 1790" d="M3.608,0h.31A3.608,3.608,0,0,1,7.526,3.608v.31A3.608,3.608,0,0,1,3.918,7.526h-.31A3.608,3.608,0,0,1,0,3.918v-.31A3.608,3.608,0,0,1,3.608,0Z" transform="translate(25.47 7.363) rotate(47)" fill="#035a9a"/>
                <rect id="Rectangle_3014" data-name="Rectangle 3014" width="7.526" height="7.526" rx="3.763" transform="translate(5.504 7.363) rotate(47)" fill="#035a9a"/>
                <path id="Path_1866" data-name="Path 1866" d="M359.828,202.694V186.25s.011-.779-.451-.522a13.443,13.443,0,0,0-1.6.991,1.38,1.38,0,0,0-.286,1.042v14.932a.438.438,0,0,1-.269.364,2.841,2.841,0,1,0,2.865-.006A.423.423,0,0,1,359.828,202.694Z" transform="translate(-314.563 -185.676)" fill="#035a9a"/>
              </g>
              <g id="Group_4260" data-name="Group 4260" transform="translate(38.068 25.598)">
                <rect id="Rectangle_3013" data-name="Rectangle 3013" width="9.505" height="9.505" rx="1" transform="translate(6.952 0) rotate(47)" fill="#ffc000"/>
              </g>
              <rect id="Rectangle_3518" data-name="Rectangle 3518" width="6.336" height="6.336" rx="1" transform="translate(44.895 27.914) rotate(47)" fill="#dd6a03"/>
            </g>
            <g id="Group_5225" data-name="Group 5225" transform="translate(24.499 53.416)">
              <g id="Path_2966" data-name="Path 2966" transform="matrix(1, 0.017, -0.017, 1, 24.655, 22.838)" fill="#08cafe">
                <path d="M 6.676407337188721 10.88815593719482 C 5.213357448577881 10.88815593719482 3.811877250671387 10.32497596740723 2.831317186355591 9.343025207519531 C 1.971167206764221 8.481645584106445 1.49835729598999 7.36784553527832 1.500007271766663 6.206795692443848 C 1.503667235374451 3.617215633392334 3.838897228240967 1.507385611534119 6.705617427825928 1.50363552570343 L 9.471237182617188 1.500005602836609 L 9.478967666625977 1.499995589256287 C 10.94201755523682 1.499995589256287 12.34349727630615 2.063175678253174 13.32404708862305 3.045125484466553 C 14.18421745300293 3.906505584716797 14.65701770782471 5.020305633544922 14.65537738800049 6.181365489959717 C 14.65170764923096 8.770936012268066 12.31646728515625 10.88076591491699 9.449747085571289 10.88452529907227 L 6.684147357940674 10.88814544677734 L 6.676407337188721 10.88815593719482 Z" stroke="none"/>
                <path d="M 9.478967666625977 -4.76837158203125e-06 L 9.478707313537598 2.999995231628418 L 6.707587242126465 3.003635406494141 C 4.665717124938965 3.006305694580078 3.002497673034668 4.444185733795166 3.000007629394531 6.208925724029541 C 2.998617172241211 7.182985782623291 3.484706878662109 7.874515533447266 3.892726898193359 8.283115386962891 C 4.593997001647949 8.985385894775391 5.608607292175293 9.388155937194824 6.676667213439941 9.388155937194824 L 9.447776794433594 9.384525299072266 C 11.48965740203857 9.381845474243164 13.15287780761719 7.943955421447754 13.15537738800049 6.179235458374023 C 13.15675735473633 5.205165386199951 12.67066764831543 4.513635635375977 12.26264762878418 4.105035781860352 C 11.56137657165527 3.402765274047852 10.54675674438477 2.999995231628418 9.478967666625977 2.999995231628418 L 9.478967666625977 -4.76837158203125e-06 M 9.478967666625977 -9.5367431640625e-07 C 13.17208480834961 -9.5367431640625e-07 16.16021347045898 2.766517639160156 16.15537643432617 6.183485507965088 C 16.15052795410156 9.603375434875488 13.14919757843018 12.37967586517334 9.451717376708984 12.38452529907227 L 6.686107635498047 12.38814544677734 C 2.98851203918457 12.39299583435059 -0.004842758178710938 9.624555587768555 7.62939453125e-06 6.204665660858154 C 0.004846572875976562 2.784775733947754 3.006176948547363 0.008475303649902344 6.703657150268555 0.003635406494140625 L 9.469266891479492 5.7220458984375e-06 C 9.472427368164062 1.9073486328125e-06 9.475809097290039 -9.5367431640625e-07 9.478967666625977 -9.5367431640625e-07 Z" stroke="none" fill="#035a9a"/>
              </g>
              <g id="Path_2967" data-name="Path 2967" transform="matrix(1, 0.017, -0.017, 1, 0.216, 22.814)" fill="#08cafe">
                <path d="M 6.676407337188721 10.88815593719482 C 5.213357448577881 10.88815593719482 3.811877250671387 10.32497596740723 2.831317186355591 9.343025207519531 C 1.971167206764221 8.481645584106445 1.49835729598999 7.36784553527832 1.500007271766663 6.206795692443848 C 1.503667235374451 3.617215633392334 3.838897228240967 1.507385611534119 6.705617427825928 1.50363552570343 L 9.471237182617188 1.500005602836609 L 9.478967666625977 1.499995589256287 C 10.94201755523682 1.499995589256287 12.34349727630615 2.063175678253174 13.32404708862305 3.045125484466553 C 14.18421745300293 3.906505584716797 14.65701770782471 5.020305633544922 14.65537738800049 6.181365489959717 C 14.65170764923096 8.770936012268066 12.31646728515625 10.88076591491699 9.449747085571289 10.88452529907227 L 6.684147357940674 10.88814544677734 L 6.676407337188721 10.88815593719482 Z" stroke="none"/>
                <path d="M 9.478967666625977 -4.76837158203125e-06 L 9.478707313537598 2.999995231628418 L 6.707587242126465 3.003635406494141 C 4.665717124938965 3.006305694580078 3.002497673034668 4.444185733795166 3.000007629394531 6.208925724029541 C 2.998617172241211 7.182985782623291 3.484706878662109 7.874515533447266 3.892726898193359 8.283115386962891 C 4.593997001647949 8.985385894775391 5.608607292175293 9.388155937194824 6.676667213439941 9.388155937194824 L 9.447776794433594 9.384525299072266 C 11.48965740203857 9.381845474243164 13.15287780761719 7.943955421447754 13.15537738800049 6.179235458374023 C 13.15675735473633 5.205165386199951 12.67066764831543 4.513635635375977 12.26264762878418 4.105035781860352 C 11.56137657165527 3.402765274047852 10.54675674438477 2.999995231628418 9.478967666625977 2.999995231628418 L 9.478967666625977 -4.76837158203125e-06 M 9.478967666625977 -9.5367431640625e-07 C 13.17208480834961 -9.5367431640625e-07 16.16021347045898 2.766517639160156 16.15537643432617 6.183485507965088 C 16.15052795410156 9.603375434875488 13.14919757843018 12.37967586517334 9.451717376708984 12.38452529907227 L 6.686107635498047 12.38814544677734 C 2.98851203918457 12.39299583435059 -0.004842758178710938 9.624555587768555 7.62939453125e-06 6.204665660858154 C 0.004846572875976562 2.784775733947754 3.006176948547363 0.008475303649902344 6.703657150268555 0.003635406494140625 L 9.469266891479492 5.7220458984375e-06 C 9.472427368164062 1.9073486328125e-06 9.475809097290039 -9.5367431640625e-07 9.478967666625977 -9.5367431640625e-07 Z" stroke="none" fill="#035a9a"/>
              </g>
              <g id="Group_5223" data-name="Group 5223" transform="translate(9.757)">
                <rect id="Rectangle_3506" data-name="Rectangle 3506" width="19.281" height="19.281" rx="5" transform="translate(0)" fill="#08cafe"/>
              </g>
            </g>
          </g>
        </g>
      </g>
    </g>
  </g>
</svg>
