<svg xmlns="http://www.w3.org/2000/svg" width="27.655" height="27.888" viewBox="0 0 27.655 27.888">
  <g id="Group_9377" data-name="Group 9377" transform="translate(-317 -822)">
    <g id="Group_9376" data-name="Group 9376" transform="translate(316 821.137)">
      <g id="Group_8819" data-name="Group 8819" transform="translate(1 0.863)">
        <g id="Rectangle_5473" data-name="Rectangle 5473" transform="translate(3.661)" fill="#005699" stroke="#005699" stroke-width="3">
          <rect width="23.994" height="20.247" rx="3" stroke="none"/>
          <rect x="1.5" y="1.5" width="20.994" height="17.247" rx="1.5" fill="none"/>
        </g>
        <g id="Path_3532" data-name="Path 3532" transform="translate(0 6.058)" fill="#005699">
          <path d="M 20.00544166564941 21.33049964904785 L 4.000000953674316 21.33049964904785 C 2.070090770721436 21.33049964904785 0.5000008344650269 19.76040840148926 0.5000008344650269 17.83049964904785 L 0.5000008344650269 3.999998807907104 C 0.5000008344650269 2.070088863372803 2.070090770721436 0.4999988675117493 4.000000953674316 0.4999988675117493 L 20.00544166564941 0.4999988675117493 C 21.93535041809082 0.4999988675117493 23.50544166564941 2.070088863372803 23.50544166564941 3.999998807907104 L 23.50544166564941 17.83049964904785 C 23.50544166564941 19.76040840148926 21.93535041809082 21.33049964904785 20.00544166564941 21.33049964904785 Z" stroke="none"/>
          <path d="M 4 0.9999980926513672 C 2.345790863037109 0.9999980926513672 1 2.345788955688477 1 3.999998092651367 L 1 17.83049964904785 C 1 19.48470878601074 2.345790863037109 20.83049964904785 4 20.83049964904785 L 20.00543975830078 20.83049964904785 C 21.6596508026123 20.83049964904785 23.00544166564941 19.48470878601074 23.00544166564941 17.83049964904785 L 23.00544166564941 3.999998092651367 C 23.00544166564941 2.345788955688477 21.6596508026123 0.9999980926513672 20.00543975830078 0.9999980926513672 L 4 0.9999980926513672 M 4 -1.9073486328125e-06 L 20.00543975830078 -1.9073486328125e-06 C 22.21458053588867 -1.9073486328125e-06 24.00544166564941 1.790859222412109 24.00544166564941 3.999998092651367 L 24.00544166564941 17.83049964904785 C 24.00544166564941 20.03963851928711 22.21458053588867 21.83049964904785 20.00543975830078 21.83049964904785 L 4 21.83049964904785 C 1.790861129760742 21.83049964904785 0 20.03963851928711 0 17.83049964904785 L 0 3.999998092651367 C 0 1.790859222412109 1.790861129760742 -1.9073486328125e-06 4 -1.9073486328125e-06 Z" stroke="none" fill="#fff"/>
        </g>
        <g id="Group_8817" data-name="Group 8817" transform="translate(8.444 11.525)">
          <g id="Group_7002" data-name="Group 7002" transform="translate(0 0)">
            <g id="Group_7003" data-name="Group 7003">
              <path id="Polygon_26" data-name="Polygon 26" d="M3.715,3.523a2,2,0,0,1,3.568,0L9.528,7.955a2,2,0,0,1-1.784,2.9H3.255a2,2,0,0,1-1.784-2.9Z" transform="translate(10.859) rotate(90)" fill="#fff"/>
            </g>
          </g>
        </g>
      </g>
    </g>
  </g>
</svg>
