<svg id="Group_8954" data-name="Group 8954" xmlns="http://www.w3.org/2000/svg" width="23.831" height="26.385" viewBox="0 0 23.831 26.385">
  <g id="Union_532" data-name="Union 532" fill="none">
    <path d="M1.566,19.575a1.566,1.566,0,1,1,0-3.132H2.745a3.658,3.658,0,0,0,.591-1.963V10.562a8,8,0,0,1,6.729-7.684V1.486a1.486,1.486,0,0,1,2.973,0V2.82a8.024,8.024,0,0,1,7.077,7.742V14.48a3.606,3.606,0,0,0,.6,1.963h1.552a1.566,1.566,0,1,1,0,3.132Z" stroke="none"/>
    <path d="M 16.80011749267578 16.07500076293945 C 16.67695236206055 15.55444240570068 16.61499977111816 15.02197265625 16.61499977111816 14.48010063171387 L 16.61499977111816 10.56150054931641 C 16.61499977111816 9.284720420837402 16.0136604309082 8.365509986877441 15.50919055938721 7.819230556488037 C 14.75191020965576 6.999170303344727 13.69389057159424 6.453460216522217 12.53003025054932 6.28264045715332 L 11.61454677581787 6.148270606994629 L 10.71049976348877 6.317750453948975 C 8.465640068054199 6.738590240478516 6.836300373077393 8.523350715637207 6.836300373077393 10.56150054931641 L 6.836300373077393 14.48010063171387 C 6.836300373077393 15.02114963531494 6.774434566497803 15.55351638793945 6.651360988616943 16.07500076293945 L 16.80011749267578 16.07500076293945 M 22.26510047912598 19.57500076293945 L 1.56600022315979 19.57500076293945 C 0.70110023021698 19.57500076293945 2.319335976608272e-07 18.87389945983887 2.319335976608272e-07 18.00900077819824 C 2.319335976608272e-07 17.14410018920898 0.70110023021698 16.44300079345703 1.56600022315979 16.44300079345703 L 2.745000123977661 16.44300079345703 C 3.074950218200684 15.91226005554199 3.336300134658813 15.26626014709473 3.336300134658813 14.48010063171387 L 3.336300134658813 10.56150054931641 C 3.336300134658813 6.764110565185547 6.22730016708374 3.597240447998047 10.06560039520264 2.87768030166626 L 10.06560039520264 1.485900402069092 C 10.06560039520264 0.6651003956794739 10.73159980773926 3.814697322468419e-07 11.55240058898926 3.814697322468419e-07 C 12.37230014801025 3.814697322468419e-07 13.03830051422119 0.6651003956794739 13.03830051422119 1.485900402069092 L 13.03830051422119 2.819740295410156 C 17.04865074157715 3.408360481262207 20.11499977111816 6.650520324707031 20.11499977111816 10.56150054931641 L 20.11499977111816 14.48010063171387 C 20.11499977111816 15.27181053161621 20.38002014160156 15.91692066192627 20.71326065063477 16.44300079345703 L 22.26510047912598 16.44300079345703 C 23.13000106811523 16.44300079345703 23.83110046386719 17.14410018920898 23.83110046386719 18.00900077819824 C 23.83110046386719 18.87389945983887 23.13000106811523 19.57500076293945 22.26510047912598 19.57500076293945 Z" stroke="none" fill="#fff"/>
  </g>
  <path id="Path_3437" data-name="Path 3437" d="M2.979,1.983c1.645,0,2.979-.359,2.979,1.286A2.979,2.979,0,1,1,0,3.269C0,1.624,1.334,1.983,2.979,1.983Z" transform="translate(8.511 20.137)" fill="#f4c04f"/>
</svg>
