<svg xmlns="http://www.w3.org/2000/svg" width="39.156" height="39.303" viewBox="0 0 39.156 39.303">
  <g id="Group_9367" data-name="Group 9367" transform="translate(-276 -822.999)">
    <g id="Group_9356" data-name="Group 9356" transform="translate(276 822.999)">
      <g id="Group_9022" data-name="Group 9022" transform="translate(0 0)">
        <path id="Subtraction_89" data-name="Subtraction 89" d="M15.7,36.386H3a3,3,0,0,1-3-3V6A6.007,6.007,0,0,1,6,0h9.7a5.006,5.006,0,0,1,5,5V31.387A5.005,5.005,0,0,1,15.7,36.386Z" transform="translate(18.454 0)" fill="#fff"/>
        <g id="Subtraction_91" data-name="Subtraction 91" transform="translate(22.702 36.388) rotate(180)" fill="none">
          <path d="M17.7,36.386H6a6.007,6.007,0,0,1-6-6V3A3,3,0,0,1,3,0H17.7a5.006,5.006,0,0,1,5,5V31.387A5.005,5.005,0,0,1,17.7,36.386Z" stroke="none"/>
          <path d="M 17.70210075378418 32.38610076904297 C 18.25323104858398 32.38610076904297 18.70160102844238 31.93773078918457 18.70160102844238 31.38660049438477 L 18.70160102844238 5.000400543212891 C 18.70160102844238 4.448780536651611 18.25323104858398 4.000000476837158 17.70210075378418 4.000000476837158 L 4.000000476837158 4.000000476837158 L 4.000000476837158 30.38669967651367 C 4.000000476837158 31.48917007446289 4.897330284118652 32.38610076904297 6.000300407409668 32.38610076904297 L 17.70210075378418 32.38610076904297 M 17.70210075378418 36.38610076904297 L 6.000300407409668 36.38610076904297 C 2.691720485687256 36.38610076904297 5.14221198955056e-07 33.69478225708008 5.14221198955056e-07 30.38669967651367 L 5.14221198955056e-07 2.999700307846069 C 5.14221198955056e-07 1.345660328865051 1.34566056728363 3.845214848752221e-07 2.999700546264648 3.845214848752221e-07 L 17.70210075378418 3.845214848752221e-07 C 20.45882987976074 3.845214848752221e-07 22.70160102844238 2.243170499801636 22.70160102844238 5.000400543212891 L 22.70160102844238 31.38660049438477 C 22.70160102844238 34.14332962036133 20.45882987976074 36.38610076904297 17.70210075378418 36.38610076904297 Z" stroke="none" fill="#fff"/>
        </g>
      </g>
      <g id="Rectangle_5531" data-name="Rectangle 5531" transform="translate(15.611 32.016)" fill="none" stroke="#fff" stroke-width="3">
        <rect width="8.017" height="7.288" rx="3" stroke="none"/>
        <rect x="1.5" y="1.5" width="5.017" height="4.288" rx="1.5" fill="none"/>
      </g>
    </g>
    <g id="Group_9357" data-name="Group 9357" transform="translate(298.102 835.486)">
      <g id="Group_9353" data-name="Group 9353" transform="translate(4.371 9.956) rotate(-141)">
        <path id="Union_534" data-name="Union 534" d="M1.269,0A1.269,1.269,0,0,1,2.537,1.269V5.3A1.269,1.269,0,0,1,0,5.3V1.269A1.269,1.269,0,0,1,1.269,0Z" transform="translate(0 2.537) rotate(-90)" fill="#01508a"/>
      </g>
      <path id="Union_537" data-name="Union 537" d="M1.239,0A1.239,1.239,0,0,1,2.478,1.239v8.9a1.239,1.239,0,0,1-2.478,0v-8.9A1.239,1.239,0,0,1,1.239,0Z" transform="translate(10.273 0) rotate(43)" fill="#01508a"/>
    </g>
    <g id="Group_9358" data-name="Group 9358" transform="translate(282.412 834.613)">
      <rect id="Rectangle_5593" data-name="Rectangle 5593" width="6" height="6" rx="3" transform="translate(2.381 -3)" fill="#fff"/>
    </g>
    <g id="Group_9371" data-name="Group 9371" transform="translate(282.412 847.613)">
      <rect id="Rectangle_5593-2" data-name="Rectangle 5593" width="6" height="6" rx="3" transform="translate(2.381 -3)" fill="#fff"/>
    </g>
  </g>
</svg>
