<svg width="21" height="26" viewBox="0 0 21 26" fill="none" xmlns="http://www.w3.org/2000/svg">
<path d="M18.2907 5.14345C17.6935 5.14345 17.2092 5.62764 17.2092 6.22496V10.9387C17.2092 11.1981 16.9761 11.4085 16.6885 11.4085C16.4008 11.4085 16.1677 11.1981 16.1677 10.9387V4.25403C16.1668 3.53681 15.5853 2.95571 14.8682 2.95571C14.1503 2.95571 13.5685 3.53758 13.5685 4.25534C13.5685 4.25534 13.572 10.9348 13.5685 10.9364V10.9387C13.5685 11.198 13.3488 11.4084 13.0774 11.4084C12.8063 11.4084 12.5863 11.198 12.5863 10.9387V2.40747C12.5857 1.63006 11.9553 1 11.1778 1C10.3996 1 9.76898 1.63065 9.76898 2.40884C9.76898 2.40884 9.76756 10.8686 9.76756 10.9667C9.75294 11.2131 9.54914 11.4086 9.29911 11.4086C9.03963 11.4086 8.82931 11.1982 8.82931 10.9388V3.63901C8.82931 2.86088 8.19865 2.23023 7.42064 2.23023C6.64252 2.23023 6.01179 2.86088 6.01179 3.63901C5.99878 13.8465 5.99884 13.8465 5.99789 14.6917C5.99789 15.0107 6.00407 15.6961 5.8503 15.8109C5.72261 15.9062 5.55251 15.7878 5.34662 15.5099C4.87943 14.879 4.20487 13.877 3.7136 13.2073C3.24789 12.5724 2.51231 11.8831 1.67731 12.3397C0.883258 12.7741 0.748741 13.8871 1.2857 14.6162C1.2857 14.6162 4.76445 19.7211 5.95327 21.496C6.64917 22.5349 6.83586 22.8641 7.07578 23.2055C7.99009 24.5059 8.50031 24.5465 9.9748 24.5465C11.5655 24.5465 16.085 24.5465 16.085 24.5465C19.3722 24.5465 19.3722 20.6448 19.3722 18.9795V6.81948C19.3722 5.62764 18.888 5.14345 18.2907 5.14345Z" stroke="#FCC527" stroke-width="1.5"/>
</svg>
