<svg width="19" height="28" viewBox="0 0 19 28" fill="none" xmlns="http://www.w3.org/2000/svg">
<path d="M18.7775 16.0392C18.7775 14.8258 18.0795 13.773 17.0644 13.2591C17.5598 12.669 17.8161 11.928 17.7883 11.1485C17.7296 9.49336 16.3076 8.14681 14.6185 8.14681H12.1794V4.28318C12.1794 2.43471 10.6756 0.930908 8.82709 0.930908C6.97861 0.930908 5.47481 2.43471 5.47481 4.28318V8.35735C2.36229 9.12941 0.0478516 11.9458 0.0478516 15.2937V20.5705C0.0478516 24.5114 3.25398 27.7174 7.19475 27.7174H13.5991C15.0416 27.7174 16.211 26.6088 16.2614 25.1936C16.2815 24.6268 16.1229 24.0844 15.8105 23.627C16.858 23.1248 17.5831 22.054 17.5831 20.8169C17.5831 20.09 17.3321 19.4212 16.9133 18.8907C18.0097 18.4082 18.7775 17.3119 18.7775 16.0392ZM6.92605 4.28318C6.92605 3.23497 7.77887 2.38215 8.82709 2.38215C9.87531 2.38215 10.7281 3.23497 10.7281 4.28318V8.14681H7.19485C7.10477 8.14681 7.01541 8.15034 6.92616 8.15365L6.92605 4.28318ZM15.663 17.7024H14.4685H9.06955C8.66879 17.7024 8.34393 18.0273 8.34393 18.4281C8.34393 18.8288 8.66879 19.1537 9.06955 19.1537H14.4685C15.3857 19.1537 16.1318 19.8998 16.1318 20.817C16.1318 21.7342 15.3857 22.4802 14.4685 22.4802H9.06955C8.66879 22.4802 8.34393 22.8051 8.34393 23.2059C8.34393 23.6066 8.66879 23.9315 9.06955 23.9315H13.6445C13.9641 23.9315 14.2625 24.0583 14.4846 24.2883C14.7065 24.5182 14.8224 24.8214 14.811 25.1419C14.7889 25.7617 14.2452 26.266 13.5991 26.266H7.19475C4.05413 26.266 1.49911 23.711 1.49911 20.5704V15.2936C1.49911 12.153 4.05413 9.59795 7.19475 9.59795H14.6185C15.5352 9.59795 16.3066 10.3166 16.3379 11.1999C16.3542 11.6565 16.189 12.0884 15.8728 12.4161C15.5563 12.7439 15.1312 12.9245 14.6757 12.9245H9.06944C8.66869 12.9245 8.34382 13.2494 8.34382 13.6501C8.34382 14.0509 8.66869 14.3758 9.06944 14.3758H15.6628C16.58 14.3758 17.326 15.1219 17.326 16.039C17.326 16.9561 16.5801 17.7024 15.663 17.7024Z" fill="#07B6EC"/>
</svg>
