<svg xmlns="http://www.w3.org/2000/svg" width="21.678" height="21.434" viewBox="0 0 21.678 21.434">
  <path id="Path_3425" data-name="Path 3425" d="M299.663,149.161a2.056,2.056,0,0,0,2.8.016,1.8,1.8,0,0,0,.017-2.646s-2.4-1.087-1.569-1.5,4.881-.164,4.881-.164a5.925,5.925,0,0,1,6.074,5.75v.154a5.563,5.563,0,0,1-1.779,4.066,1.8,1.8,0,0,0,0,2.646,2.056,2.056,0,0,0,2.8,0,9.183,9.183,0,0,0,2.937-6.712v-.154a9.184,9.184,0,0,0-2.937-6.712,10.252,10.252,0,0,0-7.09-2.78l-4.926.164,1.591-1.488a1.8,1.8,0,0,0,.017-2.646,2.056,2.056,0,0,0-2.795-.016l-4.95,4.63a1.8,1.8,0,0,0-.017,2.646Z" transform="translate(-294.135 -136.594)" fill="#fff"/>
</svg>
