<svg xmlns="http://www.w3.org/2000/svg" width="20.196" height="19.388" viewBox="0 0 20.196 19.388">
  <g id="Group_7688" data-name="Group 7688" transform="translate(-51 -426)">
    <g id="settings-work-tool" transform="translate(51 426)">
      <g id="Group_1481" data-name="Group 1481" transform="translate(0)">
        <path id="Path_1034" data-name="Path 1034" d="M20.135,8.618a.653.653,0,0,0-.649-.477A2.247,2.247,0,0,1,17.4,6.812a2.1,2.1,0,0,1,.565-2.4.523.523,0,0,0,.061-.731,9.8,9.8,0,0,0-1.6-1.551.579.579,0,0,0-.767.06,2.4,2.4,0,0,1-2.519.543,2.148,2.148,0,0,1-1.364-2.1.545.545,0,0,0-.5-.566A10.5,10.5,0,0,0,9,.059a.547.547,0,0,0-.5.555A2.154,2.154,0,0,1,7.121,2.682a2.4,2.4,0,0,1-2.5-.546.58.58,0,0,0-.762-.062,9.846,9.846,0,0,0-1.634,1.55.524.524,0,0,0,.06.737A2.089,2.089,0,0,1,2.851,6.78a2.344,2.344,0,0,1-2.2,1.31.542.542,0,0,0-.583.476,9.324,9.324,0,0,0,0,2.2.664.664,0,0,0,.662.477,2.218,2.218,0,0,1,2.078,1.328,2.1,2.1,0,0,1-.565,2.4.523.523,0,0,0-.061.73,9.831,9.831,0,0,0,1.6,1.551.578.578,0,0,0,.769-.058,2.393,2.393,0,0,1,2.517-.544,2.145,2.145,0,0,1,1.366,2.1.545.545,0,0,0,.5.566,10.467,10.467,0,0,0,2.272.006.547.547,0,0,0,.5-.555,2.152,2.152,0,0,1,1.382-2.067,2.4,2.4,0,0,1,2.5.546.581.581,0,0,0,.762.061,9.869,9.869,0,0,0,1.634-1.55.523.523,0,0,0-.06-.737,2.089,2.089,0,0,1-.566-2.418,2.265,2.265,0,0,1,2.066-1.314l.125,0a.556.556,0,0,0,.591-.475A9.316,9.316,0,0,0,20.135,8.618Zm-10.019,4.33A3.306,3.306,0,0,1,6.748,9.714a3.307,3.307,0,0,1,3.368-3.233,3.307,3.307,0,0,1,3.368,3.233A3.306,3.306,0,0,1,10.117,12.948Z" transform="translate(-0.003 0)" fill="#fff" fill-rule="evenodd"/>
      </g>
    </g>
  </g>
</svg>
