<svg id="Group_5864" data-name="Group 5864" xmlns="http://www.w3.org/2000/svg" width="14.389" height="13.972" viewBox="0 0 14.389 13.972">
  <path id="star-3" d="M14.076,7.379a1.049,1.049,0,0,0,.261-1.072,1.029,1.029,0,0,0-.833-.712l-3.484-.513a.456.456,0,0,1-.343-.253L8.119,1.63a1.026,1.026,0,0,0-1.851,0l-1.558,3.2a.456.456,0,0,1-.343.253L.884,5.6a1.029,1.029,0,0,0-.833.712A1.049,1.049,0,0,0,.311,7.379l2.521,2.49a.466.466,0,0,1,.131.409l-.595,3.516a1.036,1.036,0,0,0,1.5,1.1l3.116-1.66a.461.461,0,0,1,.424,0l3.116,1.66a1.01,1.01,0,0,0,.48.122,1.043,1.043,0,0,0,1.017-1.224l-.595-3.516a.466.466,0,0,1,.131-.409Z" transform="translate(0.001 -1.047)" fill="#ffb638" opacity="0.995"/>
</svg>
