<svg xmlns="http://www.w3.org/2000/svg" width="20.23" height="20.976" viewBox="0 0 20.23 20.976">
  <path id="Icon_awesome-user-graduate" data-name="Icon awesome-user-graduate" d="M14.423,13.133l-4.308,3.908L5.807,13.133A5.769,5.769,0,0,0,0,18.614v.393a2.075,2.075,0,0,0,2.168,1.966h15.9a2.075,2.075,0,0,0,2.168-1.966v-.393a5.769,5.769,0,0,0-5.807-5.481ZM.614,3.268.9,3.33V5.722a.962.962,0,0,0-.542.832.953.953,0,0,0,.5.807l-.7,2.552a.429.429,0,0,0,.343.574H2.389a.429.429,0,0,0,.343-.574l-.7-2.552a.953.953,0,0,0,.5-.807.962.962,0,0,0-.542-.832V3.567l2.98.651a4.82,4.82,0,0,0-.632,2.335,5.531,5.531,0,0,0,5.78,5.244A5.531,5.531,0,0,0,15.9,6.554a4.771,4.771,0,0,0-.632-2.335l4.349-.95a.646.646,0,0,0,0-1.29L11.014.093a4.265,4.265,0,0,0-1.793,0L.614,1.974a.648.648,0,0,0,0,1.295Z" transform="translate(0 0.002)" fill="#fff"/>
</svg>
