<svg xmlns="http://www.w3.org/2000/svg" width="19.216" height="22.404" viewBox="0 0 19.216 22.404">
  <path id="Icon_awesome-user-tie" data-name="Icon awesome-user-tie" d="M9.608,11.2A5.546,5.546,0,0,0,15.1,5.6,5.546,5.546,0,0,0,9.608,0a5.546,5.546,0,0,0-5.49,5.6A5.546,5.546,0,0,0,9.608,11.2Zm4.109,1.427L11.667,21l-1.373-5.951,1.373-2.45H7.549l1.373,2.45L7.549,21,5.5,12.629A5.82,5.82,0,0,0,0,18.484V20.3a2.08,2.08,0,0,0,2.059,2.1h15.1a2.08,2.08,0,0,0,2.059-2.1v-1.82A5.82,5.82,0,0,0,13.717,12.629Z" fill="#fff"/>
</svg>
