<svg xmlns="http://www.w3.org/2000/svg" width="28" height="28" viewBox="0 0 28 28">
  <g id="Group_9963" data-name="Group 9963" transform="translate(-360 -638)">
    <g id="Group_9957" data-name="Group 9957" transform="translate(84 -185)">
      <g id="Group_9360" data-name="Group 9360">
        <g id="Group_9356" data-name="Group 9356" transform="translate(276 823)">
          <g id="Group_9022" data-name="Group 9022" transform="translate(0 0)">
            <g id="Subtraction_89" data-name="Subtraction 89" transform="translate(12.425 0)" fill="none">
              <path d="M10.576,26H3a3,3,0,0,1-3-3V6A6.007,6.007,0,0,1,6,0h4.576a5.006,5.006,0,0,1,5,5V21A5.006,5.006,0,0,1,10.576,26Z" stroke="none"/>
              <path d="M 10.57590007781982 22.99920082092285 C 11.67843055725098 22.99920082092285 12.57540035247803 22.10181999206543 12.57540035247803 20.99880027770996 L 12.57540035247803 5.000400543212891 C 12.57540035247803 3.897380352020264 11.67843055725098 3.000000476837158 10.57590007781982 3.000000476837158 L 6.000300407409668 3.000000476837158 C 4.345930099487305 3.000000476837158 3.000000238418579 4.345930576324463 3.000000238418579 6.000300407409668 L 3.000070095062256 22.99742889404297 C 3.000630617141724 22.99803733825684 3.001240253448486 22.99864387512207 3.001847982406616 22.99920082092285 L 10.57590007781982 22.99920082092285 M 10.57590007781982 25.99920082092285 L 2.99970006942749 25.99920082092285 C 1.345660209655762 25.99920082092285 1.762390127169056e-07 24.65353965759277 1.762390127169056e-07 22.9995002746582 L 1.762390127169056e-07 6.000300407409668 C 1.762390127169056e-07 2.691720485687256 2.691720247268677 4.104614390598726e-07 6.000300407409668 4.104614390598726e-07 L 10.57590007781982 4.104614390598726e-07 C 13.3326301574707 4.104614390598726e-07 15.57540035247803 2.243170499801636 15.57540035247803 5.000400543212891 L 15.57540035247803 20.99880027770996 C 15.57540035247803 23.75603103637695 13.3326301574707 25.99920082092285 10.57590007781982 25.99920082092285 Z" stroke="none" fill="#bebebe"/>
            </g>
            <g id="Subtraction_91" data-name="Subtraction 91" transform="translate(15.575 25.999) rotate(180)" fill="none">
              <path d="M10.575,26H6a6.007,6.007,0,0,1-6-6V3A3,3,0,0,1,3,0h7.575a5.006,5.006,0,0,1,5,5V21A5.006,5.006,0,0,1,10.575,26Z" stroke="none"/>
              <path d="M 10.57499980926514 22.99920082092285 C 11.67802047729492 22.99920082092285 12.57540035247803 22.10181999206543 12.57540035247803 20.99880027770996 L 12.57540035247803 5.000400543212891 C 12.57540035247803 3.897380352020264 11.67802047729492 3.000000476837158 10.57499980926514 3.000000476837158 L 3.001772165298462 3.000070333480835 C 3.001164197921753 3.000630855560303 3.000556468963623 3.001240253448486 3.000000238418579 3.001848220825195 L 3.000000238418579 19.99889945983887 C 3.000000238418579 21.65327072143555 4.345930099487305 22.99920082092285 6.000300407409668 22.99920082092285 L 10.57499980926514 22.99920082092285 M 10.57499980926514 25.99920082092285 L 6.000300407409668 25.99920082092285 C 2.691720247268677 25.99920082092285 1.762390127169056e-07 23.30747985839844 1.762390127169056e-07 19.99889945983887 L 1.762390127169056e-07 2.999700307846069 C 1.762390127169056e-07 1.345660448074341 1.345660209655762 4.104614390598726e-07 2.99970006942749 4.104614390598726e-07 L 10.57499980926514 4.104614390598726e-07 C 13.33223056793213 4.104614390598726e-07 15.57540035247803 2.243170499801636 15.57540035247803 5.000400543212891 L 15.57540035247803 20.99880027770996 C 15.57540035247803 23.75603103637695 13.33223056793213 25.99920082092285 10.57499980926514 25.99920082092285 Z" stroke="none" fill="#bebebe"/>
            </g>
          </g>
          <g id="Rectangle_5531" data-name="Rectangle 5531" transform="translate(11.28 23)" fill="none" stroke="#bebebe" stroke-width="3">
            <rect width="5.5" height="5" rx="2.5" stroke="none"/>
            <rect x="1.5" y="1.5" width="2.5" height="2" rx="1" fill="none"/>
          </g>
        </g>
      </g>
    </g>
    <path id="Path_3560" data-name="Path 3560" d="M1,0H4A.947.947,0,0,1,5,.882V9.7a.947.947,0,0,1-1,.882l-1.491-2.8L1,10.583A.947.947,0,0,1,0,9.7V.882A.947.947,0,0,1,1,0Z" transform="translate(378 640)" fill="#bebebe"/>
  </g>
</svg>
