<svg xmlns="http://www.w3.org/2000/svg" width="70" height="70" viewBox="0 0 70 70">
  <g id="Group_8961" data-name="Group 8961" transform="translate(-172 -56)">
    <g id="Group_8959" data-name="Group 8959">
      <g id="Group_8958" data-name="Group 8958" transform="translate(0)">
        <g id="Group_6479" data-name="Group 6479">
          <g id="Group_6360" data-name="Group 6360" transform="translate(0)">
            <g id="Group_6098" data-name="Group 6098">
              <g id="Group_2260" data-name="Group 2260" transform="translate(171.988 55.883)">
                <rect id="IMG_0460" width="70" height="70" rx="15" transform="translate(0.011 0.117)" fill="#4883c4"/>
              </g>
            </g>
          </g>
          <g id="Group_9212" data-name="Group 9212" transform="translate(187.999 72.382)">
            <path id="Union_534" data-name="Union 534" d="M0,34.261V22.739H-11.524A3.738,3.738,0,0,1-15.261,19a3.738,3.738,0,0,1,3.738-3.739H0V3.739a3.739,3.739,0,0,1,7.477,0V15.261H19a3.739,3.739,0,0,1,0,7.477H7.477V34.261a3.739,3.739,0,1,1-7.477,0Z" transform="translate(38 14.879) rotate(90)" fill="#fff"/>
          </g>
        </g>
      </g>
    </g>
  </g>
</svg>
