<svg width="24" height="19" viewBox="0 0 24 19" fill="none" xmlns="http://www.w3.org/2000/svg">
<path d="M23.1567 0.634712C22.7449 0.222889 22.2498 0.0170898 21.6717 0.0170898H2.32731C1.74909 0.0170898 1.254 0.222889 0.842227 0.634712C0.430405 1.04644 0.224609 1.54148 0.224609 2.11978V16.4179C0.224609 16.9963 0.430405 17.4909 0.842227 17.9027C1.25396 18.3147 1.74905 18.5204 2.32731 18.5204H21.6718C22.2499 18.5204 22.7449 18.3147 23.1567 17.9027C23.5686 17.4909 23.7743 16.996 23.7743 16.4179V2.11978C23.7743 1.54148 23.5686 1.04644 23.1567 0.634712ZM22.092 16.4176C22.092 16.5315 22.0504 16.63 21.9671 16.7133C21.8838 16.7966 21.7853 16.8378 21.6716 16.8378H2.32717C2.2133 16.8378 2.1147 16.7966 2.03153 16.7133C1.94826 16.63 1.9067 16.5315 1.9067 16.4176V6.32494C2.18701 6.64033 2.48929 6.92949 2.81347 7.19226C5.1615 8.99701 7.02757 10.4775 8.41185 11.6341C8.85865 12.0108 9.22228 12.3043 9.5026 12.5146C9.78291 12.725 10.1618 12.9374 10.6392 13.1519C11.1167 13.3668 11.5658 13.4737 11.9863 13.4737H11.9995H12.0126C12.433 13.4737 12.8822 13.3668 13.3595 13.1519C13.8371 12.9374 14.2163 12.725 14.4965 12.5146C14.7767 12.3043 15.1404 12.0108 15.5873 11.6341C16.9715 10.4775 18.8374 8.99701 21.1855 7.19226C21.5097 6.92953 21.8121 6.64033 22.092 6.32494V16.4176ZM22.092 2.46136V2.6059C22.092 3.12275 21.8885 3.69886 21.4812 4.33397C21.0737 4.96907 20.6333 5.47511 20.1605 5.85172C18.4694 7.18361 16.7131 8.57207 14.8904 10.0176C14.838 10.0614 14.6845 10.1905 14.4303 10.4051C14.1765 10.6199 13.9749 10.7844 13.8259 10.8981C13.6767 11.0122 13.482 11.1502 13.2412 11.3121C13.0002 11.474 12.779 11.5947 12.5776 11.6735C12.3761 11.752 12.1877 11.7914 12.0126 11.7914H11.9995H11.9863C11.8111 11.7914 11.6229 11.752 11.4213 11.6735C11.2198 11.5947 10.9985 11.474 10.7577 11.3121C10.5169 11.1501 10.3219 11.0121 10.173 10.8981C10.0241 10.7844 9.8225 10.6199 9.56851 10.4051C9.31443 10.1905 9.16097 10.0614 9.10845 10.0176C7.2862 8.57203 5.52969 7.18361 3.83872 5.85172C2.55078 4.83558 1.90693 3.59142 1.90693 2.11956C1.90693 2.00577 1.94849 1.90713 2.03176 1.82401C2.11502 1.74073 2.21352 1.69908 2.3274 1.69908H21.6719C21.7418 1.73844 21.8032 1.7494 21.8558 1.73199C21.9084 1.71427 21.9478 1.74722 21.9739 1.8304C22.0002 1.91366 22.0243 1.95302 22.0462 1.9487C22.0682 1.94427 22.0814 1.999 22.0857 2.11306C22.0898 2.22689 22.0921 2.28419 22.0921 2.28419L22.092 2.46136Z" fill="#5D4FE4"/>
</svg>
