<svg xmlns="http://www.w3.org/2000/svg" width="70" height="70" viewBox="0 0 70 70">
  <g id="Group_9369" data-name="Group 9369" transform="translate(-172 -56)">
    <g id="Group_8959" data-name="Group 8959">
      <g id="Group_8958" data-name="Group 8958" transform="translate(0)">
        <g id="Group_6479" data-name="Group 6479">
          <g id="Group_6360" data-name="Group 6360">
            <g id="Group_6098" data-name="Group 6098">
              <g id="Group_2260" data-name="Group 2260" transform="translate(171.988 55.883)">
                <rect id="IMG_0460" width="70" height="70" rx="15" transform="translate(0.011 0.117)" fill="#4883c4"/>
              </g>
            </g>
          </g>
        </g>
        <g id="Polygon_65" data-name="Polygon 65" transform="matrix(-0.017, 1, -1, -0.017, 235.463, 68.862)" fill="#fff">
          <path d="M 36.564208984375 38.6166877746582 L 8.435797691345215 38.61667633056641 C 7.15021800994873 38.61667633056641 6.503538131713867 37.75978851318359 6.285178184509277 37.39137649536133 C 6.066818237304688 37.02296829223633 5.625547885894775 36.04431533813477 6.242688179016113 34.91656494140625 L 20.30689811706543 9.215517044067383 C 20.94890785217285 8.042296409606934 22.05447769165039 7.915636539459229 22.49999809265137 7.915636539459229 C 22.94552803039551 7.915636539459229 24.05108833312988 8.042296409606934 24.6930980682373 9.215517044067383 L 38.75730895996094 34.91656494140625 C 39.37444686889648 36.04431533813477 38.93317794799805 37.02296829223633 38.71481704711914 37.39137649536133 C 38.4964599609375 37.75978851318359 37.84977722167969 38.6166877746582 36.5641975402832 38.6166877746582 L 36.564208984375 38.6166877746582 Z" stroke="none"/>
          <path d="M 22.4999885559082 10.41562652587891 L 22.49999809265137 10.4156379699707 L 8.435787200927734 36.11667633056641 C 8.435791015625 36.11667633056641 8.435794830322266 36.11667633056641 8.435798645019531 36.11667633056641 L 36.5641975402832 36.1166877746582 C 36.56420135498047 36.1166877746582 36.564208984375 36.1166877746582 36.56421279907227 36.1166877746582 C 36.56421279907227 36.11668395996094 36.564208984375 36.11668014526367 36.564208984375 36.11667633056641 L 22.4999885559082 10.41562652587891 M 22.50000190734863 5.415634155273438 C 24.21889114379883 5.415634155273438 25.93777847290039 6.282222747802734 26.88620758056641 8.015396118164062 L 40.95041656494141 33.71643829345703 C 42.77377700805664 37.04847717285156 40.36250686645508 41.11667633056641 36.564208984375 41.1166877746582 L 8.435798645019531 41.11667633056641 C 4.637489318847656 41.11667633056641 2.226219177246094 37.04847717285156 4.049579620361328 33.71644592285156 L 18.11378860473633 8.015396118164062 C 19.06222343444824 6.282222747802734 20.78111267089844 5.415634155273438 22.50000190734863 5.415634155273438 Z" stroke="none" fill="#fff"/>
        </g>
      </g>
    </g>
  </g>
</svg>
