<svg xmlns="http://www.w3.org/2000/svg" width="65" height="65" viewBox="0 0 65 65">
  <g id="Group_10353" data-name="Group 10353" transform="translate(-175 -53)">
    <g id="Group_9548" data-name="Group 9548" transform="translate(0 0)">
      <g id="Group_9369" data-name="Group 9369" transform="translate(1.566 -3.434)">
        <g id="Group_8959" data-name="Group 8959" transform="translate(172.434 56.434)">
          <g id="Group_8958" data-name="Group 8958" transform="translate(0 0)">
            <g id="Group_6479" data-name="Group 6479" transform="translate(1)">
              <g id="Group_6360" data-name="Group 6360">
                <g id="Group_6098" data-name="Group 6098">
                  <g id="Group_2260" data-name="Group 2260">
                    <rect id="IMG_0460" width="65" height="65" rx="15" fill="#4883c4"/>
                    <path id="Union_566" data-name="Union 566" d="M2,37.5a2,2,0,0,1-2-2V29.817a10,10,0,0,1,9.418-9.983l2.971,13.8,2.856-9.127-.659-1.2-1.928-3.494H19.34l-1.927,3.494-.66,1.2,2.856,9.127,2.973-13.8A10,10,0,0,1,32,29.817V35.5a2,2,0,0,1-2,2ZM8,9a8,8,0,1,1,8,8A8,8,0,0,1,8,9Z" transform="translate(17 13.627)" fill="#fff"/>
                  </g>
                </g>
              </g>
            </g>
          </g>
        </g>
      </g>
    </g>
  </g>
</svg>
