<svg xmlns="http://www.w3.org/2000/svg" width="21.678" height="21.434" viewBox="0 0 21.678 21.434">
  <path id="Path_3426" data-name="Path 3426" d="M310.285,149.161a2.056,2.056,0,0,1-2.8.016,1.8,1.8,0,0,1-.017-2.646s2.4-1.087,1.569-1.5-4.881-.164-4.881-.164a5.925,5.925,0,0,0-6.074,5.75v.154a5.563,5.563,0,0,0,1.779,4.066,1.8,1.8,0,0,1,0,2.646,2.056,2.056,0,0,1-2.8,0,9.183,9.183,0,0,1-2.937-6.712v-.154a9.184,9.184,0,0,1,2.937-6.712,10.252,10.252,0,0,1,7.09-2.78l4.926.164L307.5,139.8a1.8,1.8,0,0,1-.017-2.646,2.056,2.056,0,0,1,2.795-.016l4.95,4.63a1.8,1.8,0,0,1,.017,2.646Z" transform="translate(-294.135 -136.594)" fill="#fff"/>
</svg>
